<?xml version="1.0" encoding="utf-8"?>
<!-- Generator: Adobe Illustrator 17.0.0, SVG Export Plug-In . SVG Version: 6.00 Build 0)  -->
<!DOCTYPE svg PUBLIC "-//W3C//DTD SVG 1.1//EN" "http://www.w3.org/Graphics/SVG/1.1/DTD/svg11.dtd">
<svg version="1.1" id="Layer_1" xmlns="http://www.w3.org/2000/svg" xmlns:xlink="http://www.w3.org/1999/xlink" x="0px" y="0px"
	 width="841.89px" height="1190.55px" viewBox="0 0 841.89 1190.55" enable-background="new 0 0 841.89 1190.55"
	 xml:space="preserve">
<g>
	<g>
		<g>
			<g>
				<g>
					<g>
						<path fill="#005BAA" d="M548.852,777.986h-32.446c-1.332,0-2.409,1.077-2.409,2.406v4.627c0,1.331,1.077,2.411,2.409,2.411
							l0,0h11.017v31.79c0,0.017,0,0.029,0,0.043c0,1.331,1.08,2.409,2.41,2.409h5.979c1.329,0,2.407-1.078,2.407-2.409l0,0v-31.833
							h10.634l0,0c1.331,0,2.408-1.08,2.408-2.411v-4.627C551.26,779.063,550.183,777.986,548.852,777.986z"/>
						<path fill="#005BAA" d="M590.998,777.986h-30.262c-1.33,0-2.409,1.077-2.409,2.406l0,0v38.871l0,0
							c0,1.331,1.079,2.409,2.409,2.409h30.261h0.001c1.33,0,2.408-1.078,2.408-2.409v-6.972h-24.734v-8.352h20.045v-9.058h-20.045
							v-7.521h24.734v-6.97C593.406,779.063,592.328,777.986,590.998,777.986z"/>
						<path fill="#005BAA" d="M621.938,787.657c5.242,0,8.926,2.061,11.67,4.185l3.653-5.74l0.104-0.163
							c0.198-0.345,0.313-0.743,0.313-1.17c0-0.684-0.291-1.297-0.758-1.725c-0.117-0.092-0.236-0.183-0.359-0.271
							c-4.064-3.018-9.056-4.786-14.935-4.786c-12.795,0-22.404,9.423-22.404,21.841c0,12.419,9.609,21.844,22.404,21.844
							c5.87,0,10.857-1.764,14.921-4.776c0.128-0.095,0.259-0.191,0.384-0.289c0.461-0.428,0.748-1.037,0.748-1.715
							c0-0.439-0.123-0.853-0.334-1.2l-0.066-0.107l-3.671-5.766c-2.744,2.121-6.428,4.182-11.67,4.182
							c-7.178,0-11.92-5.432-11.92-12.172C610.018,793.087,614.76,787.657,621.938,787.657z"/>
						<path fill="#005BAA" d="M686.602,777.986h-5.978c-1.331,0-2.409,1.077-2.409,2.406v24.127l-22.035-26.533h-6.973
							c-1.328,0-2.409,1.077-2.409,2.406v38.871c0,1.331,1.081,2.409,2.409,2.409h5.976c1.331,0,2.409-1.078,2.409-2.409v-24.122
							l22.037,26.531h6.973c1.329,0,2.407-1.078,2.407-2.409v-38.871C689.009,779.063,687.931,777.986,686.602,777.986z"/>
						<path fill="#005BAA" d="M776.805,812.292h-19.371v-31.899c0-1.329-1.078-2.406-2.407-2.406l0,0h-5.978
							c-1.33,0-2.408,1.077-2.408,2.406v38.871c0,1.331,1.078,2.409,2.408,2.409h27.756c1.33,0,2.41-1.078,2.41-2.409v-4.563
							C779.215,813.368,778.135,812.292,776.805,812.292z"/>
						<path fill="#005BAA" d="M739.584,818.471l-0.044-0.115l-14.618-38.677c-0.028-0.089-0.061-0.176-0.097-0.261
							c-0.376-0.842-1.222-1.432-2.204-1.432h-9.411c-0.991,0-1.843,0.597-2.213,1.452c-0.021,0.055-0.042,0.11-0.063,0.165
							l-14.974,38.718c-0.019,0.046-0.037,0.091-0.054,0.137c-0.09,0.252-0.138,0.523-0.138,0.806c0,1.331,1.076,2.409,2.408,2.409
							h5.742c0.992,0,1.846-0.604,2.213-1.459c0.029-0.066,0.055-0.13,0.077-0.196l2.395-6.374h18.311l2.324,6.311
							c0.027,0.095,0.062,0.187,0.102,0.274c0.371,0.85,1.219,1.443,2.204,1.443h5.765c1.33,0,2.408-1.078,2.408-2.409
							C739.719,818.984,739.671,818.717,739.584,818.471z M711.304,805.735l6.618-17.086l6.359,17.086H711.304z"/>
					</g>
					<g>
						<path fill="#005BAA" d="M540.486,847.329v-8.116h6.158v0.728h-5.383v2.795h4.513v0.727h-4.513v3.139h5.383v0.727H540.486z"/>
						<path fill="#005BAA" d="M558.727,849.252c-0.312,0.108-0.872,0.227-1.494,0.227c-1.982,0-3.14-1.827-3.686-2.029
							c-2.365,0-4.154-1.791-4.154-4.168c0-2.399,1.789-4.188,4.166-4.188c2.398,0,4.19,1.788,4.19,4.188
							c0,2.028-1.327,3.631-3.201,4.014c0.608,0.487,1.408,1.456,2.734,1.456c0.56,0,1.05-0.098,1.337-0.192L558.727,849.252z
							 M553.558,846.673c1.968,0,3.389-1.443,3.389-3.391c0-1.969-1.421-3.412-3.389-3.412c-1.934,0-3.368,1.443-3.368,3.412
							C550.19,845.229,551.624,846.673,553.558,846.673z"/>
						<path fill="#005BAA" d="M561.938,843.999c0,1.6,0.824,2.712,2.65,2.712c1.838,0,2.676-1.208,2.676-2.724v-4.774h0.81v4.822
							c0,1.841-1.16,3.438-3.485,3.438c-2.316,0-3.463-1.444-3.463-3.438v-4.822h0.813V843.999z"/>
						<path fill="#005BAA" d="M571.999,839.213h0.813v8.116h-0.813V839.213z"/>
						<path fill="#005BAA" d="M576.846,839.213h3.486c1.518,0,2.83,0.896,2.83,2.841c0,1.755-1.313,2.805-2.83,2.805h-2.674v2.471
							h-0.813V839.213z M577.658,839.94v4.192h2.556c1.159,0,2.112-0.766,2.112-2.079c0-1.433-0.953-2.113-2.112-2.113H577.658z"/>
						<path fill="#005BAA" d="M588.449,839.213h0.92l3.307,8.116h-0.822l-0.801-1.97h-4.416l-0.848,1.97h-0.826L588.449,839.213z
							 M586.863,844.727h3.965l-1.925-4.688L586.863,844.727z"/>
						<path fill="#005BAA" d="M603.644,840.514l-3.413,4.131h-0.19l-3.413-4.131v6.815h-0.813v-8.116h0.74l3.582,4.332l3.568-4.332
							h0.753v8.116h-0.814V840.514z"/>
						<path fill="#005BAA" d="M608.492,847.329v-8.116h6.159v0.728h-5.382v2.795h4.511v0.727h-4.511v3.139h5.382v0.727H608.492z"/>
						<path fill="#005BAA" d="M618.951,840.514v6.815h-0.815v-8.116h0.731l5.753,6.84v-6.84h0.811v8.116h-0.714L618.951,840.514z"/>
						<path fill="#005BAA" d="M632.391,839.94v7.389h-0.81v-7.389h-3.151v-0.728h6.922v0.728H632.391z"/>
						<path fill="#005BAA" d="M641.596,839.095c2.398,0,4.188,1.788,4.188,4.188c0,2.377-1.79,4.168-4.188,4.168
							c-2.377,0-4.168-1.791-4.168-4.168C637.428,840.883,639.219,839.095,641.596,839.095z M641.607,846.685
							c1.957,0,3.377-1.456,3.377-3.403c0-1.969-1.42-3.412-3.377-3.412c-1.945,0-3.378,1.443-3.378,3.412
							C638.229,845.229,639.662,846.685,641.607,846.685z"/>
						<path fill="#005BAA" d="M648.984,845.957c0.514,0.312,1.504,0.74,2.579,0.74c1.385,0,2.388-0.61,2.388-1.611
							c0-0.714-0.526-1.099-1.672-1.36l-1.576-0.37c-1.277-0.31-1.969-0.991-1.969-2.019c0-1.192,0.955-2.231,3.093-2.231
							c1.085,0,2.171,0.323,2.768,0.657l-0.237,0.74c-0.551-0.335-1.637-0.647-2.556-0.647c-1.564,0-2.23,0.671-2.23,1.421
							c0,0.681,0.462,1.077,1.371,1.29l1.659,0.406c1.396,0.359,2.194,0.918,2.194,2.065c0,1.455-1.357,2.412-3.245,2.412
							c-1.144,0-2.258-0.405-2.769-0.717L648.984,845.957z"/>
						<path fill="#005BAA" d="M666.172,846.685c1.172,0,2.138-0.455,2.783-1.135l0.406,0.588c-0.788,0.846-1.899,1.312-3.189,1.312
							c-2.396,0-4.198-1.803-4.198-4.177c0-2.378,1.802-4.179,4.198-4.179c1.29,0,2.401,0.466,3.189,1.313l-0.406,0.584
							c-0.646-0.679-1.611-1.135-2.783-1.135c-1.955,0-3.364,1.471-3.364,3.417C662.808,845.218,664.217,846.685,666.172,846.685z"
							/>
						<path fill="#005BAA" d="M672.775,839.213h0.811v8.116h-0.811V839.213z"/>
						<path fill="#005BAA" d="M677.621,847.329v-8.116h6.16v0.728h-5.383v2.795h4.512v0.727h-4.512v3.139h5.383v0.727H677.621z"/>
						<path fill="#005BAA" d="M688.08,840.514v6.815h-0.813v-8.116h0.728l5.755,6.84v-6.84h0.813v8.116h-0.718L688.08,840.514z"/>
						<path fill="#005BAA" d="M701.521,839.94v7.389h-0.813v-7.389h-3.15v-0.728h6.924v0.728H701.521z"/>
						<path fill="#005BAA" d="M708.205,838.249h-0.74l0.979-1.64h0.835L708.205,838.249z M707.477,839.213h0.811v8.116h-0.811
							V839.213z"/>
						<path fill="#005BAA" d="M713.1,843.965v3.364h-0.774v-8.116h5.919v0.728H713.1v3.295h4.5v0.729H713.1z"/>
						<path fill="#005BAA" d="M721.526,839.213h0.812v8.116h-0.812V839.213z"/>
						<path fill="#005BAA" d="M730.026,846.685c1.171,0,2.138-0.455,2.782-1.135l0.405,0.588c-0.788,0.846-1.899,1.312-3.188,1.312
							c-2.397,0-4.201-1.803-4.201-4.177c0-2.378,1.804-4.179,4.201-4.179c1.288,0,2.399,0.466,3.188,1.313l-0.405,0.584
							c-0.645-0.679-1.611-1.135-2.782-1.135c-1.957,0-3.366,1.471-3.366,3.417C726.66,845.218,728.069,846.685,730.026,846.685z"/>
						<path fill="#005BAA" d="M740.078,839.095c2.399,0,4.19,1.788,4.19,4.188c0,2.377-1.79,4.168-4.19,4.168
							c-2.376,0-4.166-1.791-4.166-4.168C735.912,840.883,737.702,839.095,740.078,839.095z M740.092,846.685
							c1.955,0,3.377-1.456,3.377-3.403c0-1.969-1.422-3.412-3.377-3.412c-1.949,0-3.38,1.443-3.38,3.412
							C736.712,845.229,738.143,846.685,740.092,846.685z"/>
						<path fill="#005BAA" d="M747.468,845.957c0.512,0.312,1.503,0.74,2.577,0.74c1.387,0,2.389-0.61,2.389-1.611
							c0-0.714-0.525-1.099-1.672-1.36l-1.576-0.37c-1.275-0.31-1.971-0.991-1.971-2.019c0-1.192,0.958-2.231,3.094-2.231
							c1.087,0,2.173,0.323,2.769,0.657l-0.24,0.74c-0.549-0.335-1.634-0.647-2.555-0.647c-1.563,0-2.231,0.671-2.231,1.421
							c0,0.681,0.463,1.077,1.372,1.29l1.659,0.406c1.397,0.359,2.197,0.918,2.197,2.065c0,1.455-1.36,2.412-3.248,2.412
							c-1.145,0-2.256-0.405-2.769-0.717L747.468,845.957z"/>
					</g>
					<g>
						<path fill="#005BAA" d="M414.994,799.273c0.195,0,0.384-0.029,0.56-0.082c0.028-0.008,0.052-0.018,0.076-0.027l0.229-0.098
							c0.027-0.013,0.051-0.023,0.074-0.037l69.915-29.917c0.148-0.04,0.285-0.102,0.415-0.177c0.576-0.33,0.965-0.951,0.965-1.664
							c0-0.441-0.15-0.849-0.405-1.174c-4.235-3.664-9.162-6.55-14.556-8.429c-2.04-0.708-4.15-1.274-6.313-1.683
							c-1.27-0.241-2.559-0.427-3.863-0.556c-0.037-0.002-0.074-0.006-0.109-0.012c-0.125-0.01-0.251-0.022-0.376-0.031
							c-0.066-0.008-0.133-0.014-0.204-0.018c-0.25-0.023-0.504-0.04-0.759-0.057c-0.083-0.006-0.165-0.011-0.247-0.017
							c-0.242-0.015-0.489-0.025-0.732-0.038c-0.069-0.003-0.143-0.005-0.215-0.01c-0.263-0.009-0.529-0.019-0.793-0.024
							c-0.037,0-0.074,0-0.112-0.004c-0.297-0.001-0.591-0.005-0.888-0.005h-0.004c-0.27,0-0.537,0-0.807,0.004
							c-0.051,0.001-0.102,0.005-0.152,0.005c-0.267,0.006-0.533,0.013-0.804,0.024c-0.022,0-0.05,0.002-0.073,0.005
							c-8.891,0.361-17.121,3.341-23.945,8.185c-10.496,7.456-17.656,19.324-18.729,32.856c0,0.04-0.005,0.074-0.008,0.113
							c-0.012,0.171-0.023,0.341-0.035,0.514c-0.003,0.055-0.006,0.113-0.013,0.172c-0.004,0.089-0.007,0.176-0.011,0.263
							C413.076,798.416,413.936,799.273,414.994,799.273z M432.32,776.784c1.67-1.83,3.534-3.482,5.55-4.913
							c5.408-3.844,11.76-6.012,18.369-6.282l0.043-0.002l0.043-0.001c0.2-0.008,0.372-0.014,0.532-0.018
							c0.074-0.002,0.145-0.002,0.206-0.002c0.196-0.004,0.396-0.008,0.589-0.008c0.191,0,0.401,0.004,0.685,0.008
							c0.013,0,0.022,0,0.035,0h0.013l0.082,0.002c0.152,0.002,0.332,0.011,0.545,0.018c0.085,0.003,0.168,0.007,0.241,0.007
							c0.153,0.008,0.329,0.021,0.524,0.028l0.032,0.006c0.023,0,0.052,0.001,0.073,0.003l0.032,0.002l0.036,0.002
							c0.16,0.012,0.369,0.025,0.555,0.042l0.085,0.008l0.046,0.003l0.072,0.008c0.082,0.006,0.167,0.013,0.25,0.02l0.105,0.012
							c1.004,0.1,1.998,0.243,2.953,0.427h0.014c0.541,0.102,1.083,0.22,1.619,0.349l-37.613,16.094
							C429.256,780.521,430.692,778.567,432.32,776.784z"/>
						<path fill="#005BAA" d="M502.298,798.856c-0.002-0.054-0.004-0.107-0.006-0.156c-0.008-0.275-0.017-0.547-0.027-0.819
							c0-0.049-0.005-0.1-0.009-0.15c-0.012-0.278-0.026-0.555-0.043-0.828c-0.004-0.031-0.008-0.061-0.008-0.091
							c-0.02-0.301-0.043-0.602-0.07-0.9v-0.004c-0.759-8.64-4.006-16.587-9.01-23.121c-0.34-0.303-0.785-0.486-1.275-0.486
							c-0.229,0-0.449,0.043-0.653,0.117c-0.068,0.027-0.136,0.056-0.2,0.086l-33.846,14.472c-0.015,0.003-0.029,0.007-0.045,0.011
							l-0.346,0.148c-0.013,0.009-0.025,0.012-0.04,0.021c-0.57,0.334-0.958,0.95-0.958,1.659v53.715
							c0,1.057,0.859,1.914,1.918,1.918c0.293,0,0.59-0.004,0.881-0.01c0.033-0.003,0.067-0.003,0.1-0.005
							c0.953-0.021,1.897-0.074,2.828-0.152c1.514-0.131,3.004-0.337,4.467-0.611c2.162-0.412,4.272-0.976,6.313-1.685
							c16.902-5.88,29.236-21.649,30-40.321c0-0.007,0.002-0.016,0.003-0.022c0.009-0.278,0.022-0.556,0.027-0.836
							c0-0.047,0-0.097,0.005-0.142c0.001-0.278,0.004-0.557,0.004-0.83C502.307,799.505,502.304,799.179,502.298,798.856z
							 M491.946,800.447c-0.002,0.03-0.004,0.154-0.004,0.154c-0.002,0.18-0.006,0.372-0.019,0.571c0,0.039,0,0.076-0.004,0.113
							c-0.291,6.932-2.665,13.537-6.864,19.102c-2.042,2.705-4.463,5.093-7.198,7.096c-2.76,2.021-5.786,3.611-8.994,4.727
							c-0.898,0.314-1.818,0.588-2.746,0.824v-38.643l22.357-9.557c1.829,3.727,2.967,7.762,3.34,11.925l0.004,0.045
							c0.021,0.194,0.035,0.409,0.052,0.66c0.004,0.056,0.008,0.108,0.011,0.148c0.01,0.165,0.021,0.353,0.031,0.572
							c0.003,0.078,0.008,0.146,0.012,0.194c0.004,0.185,0.013,0.389,0.017,0.582c0,0.054,0.002,0.108,0.004,0.159
							c0.006,0.235,0.008,0.474,0.008,0.709C491.952,799.998,491.95,800.19,491.946,800.447z"/>
						<path fill="#005BAA" d="M448.433,790.851c-0.188,0-0.37,0.029-0.54,0.076c-0.01,0.004-0.016,0.004-0.023,0.009l-0.372,0.16
							c-0.008,0.003-0.016,0.008-0.024,0.012l-17.409,7.442l-15.459,6.611c-0.607,0.323-1.02,0.957-1.02,1.691
							c0,0.085,0.012,0.169,0.024,0.251c1.977,11.965,8.75,22.348,18.263,29.104c4.84,3.436,10.38,5.935,16.367,7.232
							c0.061,0.007,0.129,0.013,0.194,0.013c1.061,0,1.919-0.861,1.919-1.92v-48.763
							C450.352,791.71,449.494,790.851,448.433,790.851z M440,829.168c-0.727-0.434-1.436-0.9-2.13-1.395
							c-1.825-1.299-3.532-2.778-5.077-4.403c-1.544-1.628-2.938-3.411-4.134-5.301c-1.278-2.012-2.327-4.122-3.149-6.318
							l8.625-3.688l5.865-2.506V829.168z"/>
					</g>
				</g>
			</g>
		</g>
	</g>
</g>
</svg>
