<svg id="Modo_de_isolamento" xmlns="http://www.w3.org/2000/svg" viewBox="0 0 16.9 11.3"><style>.st0{fill:#00a651}.st1{fill:none}.st2{fill:#fff200}.st3{fill:#00aeef}.st4{fill:#fff}</style><g id="XMLID_789_"><path id="XMLID_763_" class="st0" d="M2.2 11.3h12.5c1.2 0 2.2-1 2.2-2.2V2.2c0-1.2-1-2.2-2.2-2.2H2.2C1 0 0 1 0 2.2v6.9c0 1.2 1 2.2 2.2 2.2z"/><path id="XMLID_762_" class="st1" d="M2.2 11.3h12.5c1.2 0 2.2-1 2.2-2.2V2.2c0-1.2-1-2.2-2.2-2.2H2.2C1 0 0 1 0 2.2v6.9c0 1.2 1 2.2 2.2 2.2z"/><path id="XMLID_761_" class="st2" d="M1.4 5.7l7.1 4.5 7-4.5-7-4.6z"/><g id="XMLID_790_"><circle id="XMLID_760_" class="st3" cx="8.5" cy="5.7" r="2.9"/><g id="XMLID_865_"><path id="XMLID_759_" class="st4" d="M7.8 4.6c-.8-.1-1.5-.1-2.1 0 0 .1-.1.2-.1.4.5-.1 1.3-.2 2.1 0 1.3.2 2.5.8 3.5 1.7 0-.1.1-.2.1-.4-1-1-2.2-1.5-3.5-1.7z"/></g><g id="XMLID_825_"><path id="XMLID_862_" class="st3" d="M6.3 4.7s0 .1 0 0c0 .1 0 .1 0 0-.1.1-.1.1 0 0h-.1v-.1c0 .1 0 .1.1.1zm-.1-.1c-.1 0-.1.1-.1.1 0 .1 0 .1.1.1s.1 0 .1-.1 0-.1-.1-.1z"/><path id="XMLID_859_" class="st3" d="M6.6 4.6s0 .1 0 0c0 .1 0 .1 0 0zm-.1 0v.2-.1h.1c0-.1 0-.1-.1-.1z"/><path id="XMLID_856_" class="st3" d="M6.9 4.6s0 .1 0 0v.1h-.1l.1-.1zm-.1 0v.2h.1c.1 0 .1 0 .1-.1v-.1h-.2z"/><path id="XMLID_854_" class="st3" d="M7.3 4.6h-.1.1v.1h-.1.1-.2v-.2l.2.1z"/><path id="XMLID_852_" class="st3" d="M7.5 4.6v.1-.1h.2v.2-.1l-.2.1v-.2c-.1.1-.1.1 0 0v.2-.2z"/><path id="XMLID_850_" class="st3" d="M7.9 4.7v.1h-.1v-.1h.1z"/><path id="XMLID_847_" class="st3" d="M8.4 4.8c.1 0 .1 0 0 0 .1.1 0 .1 0 0zm-.1 0V5v-.1h.2v-.1h-.2z"/><path id="XMLID_843_" class="st3" d="M8.7 4.9c.1 0 .1 0 0 0 .1.1 0 .1 0 0zm-.1-.1V5v-.1h.1v-.1h-.1z"/><path id="XMLID_840_" class="st3" d="M9.1 5.1c-.1 0-.1 0 0 0-.1 0-.1 0 0 0H9c0-.1 0-.1.1 0-.1-.1-.1-.1 0 0 0-.1 0-.1 0 0 0-.1 0 0 0 0zM9 5h-.1c0 .1 0 .1.1.1s.1 0 .1-.1H9z"/><path id="XMLID_838_" class="st3" d="M9.4 5.2c0-.1 0-.1 0 0-.1-.1-.1-.1-.1 0v.1c0-.1 0-.1.1-.1-.1 0-.1.1 0 0v.1h-.1s-.1 0-.1-.1v-.1l.2.1c-.1-.1-.1-.1 0 0 0-.1 0-.1 0 0z"/><path id="XMLID_835_" class="st3" d="M9.6 5.3s.1 0 0 0zm0-.1l-.1.2v-.1h.1v-.1z"/><path id="XMLID_833_" class="st3" d="M10 5.4h-.1.1-.2l.1.1h-.2l.1-.2.2.1z"/><path id="XMLID_831_" class="st3" d="M10.2 5.6s0-.1 0 0c-.1-.1-.1-.1 0 0-.1-.1-.1-.1 0 0 0 0 0 .1 0 0-.1.1-.1.1 0 0H10v-.1c.1.1 0 .1.2.1-.1.1-.1.1 0 0-.1 0-.1 0 0 0-.1 0-.1 0-.1-.1l.1.1c0-.1 0-.1 0 0z"/><path id="XMLID_829_" class="st3" d="M10.4 5.7c0 .1 0 .1 0 0 0 .1 0 .1 0 0 0 .1-.1.1-.1.1l-.1-.1v-.1c.1.2.1.2.2.1 0 .1 0 .1 0 0 0 .1 0 .1 0 0-.1 0-.1 0 0 0 0-.1 0-.1 0 0 .1 0 .1 0 0 0 .1 0 .1 0 0 0z"/><path id="XMLID_826_" class="st3" d="M10.7 6c-.1 0-.1 0 0 0h-.1c0-.1 0-.1.1 0l-.1-.1.1.1c0-.1 0-.1 0 0 0-.1 0-.1 0 0zm0-.2s-.1 0 0 0h-.1c-.1.1 0 .1 0 .1h.1c.1 0 .1 0 0-.1z"/></g><path id="XMLID_735_" class="st4" d="M6 5.1h-.1l.1.1v.1l.1-.1.1.1-.1-.1.1-.1h-.1V5z"/><path id="XMLID_734_" class="st4" d="M7.3 5.7h-.1l.1.1-.1.1.1-.1.1.1v-.2h-.1v-.1z"/><path id="XMLID_733_" class="st4" d="M8 5.2v.1l.1-.1v.1-.2z"/><path id="XMLID_732_" class="st4" d="M9.2 5.5v.1h.1v-.1h-.1z"/><path id="XMLID_731_" class="st4" d="M8.4 6.2h-.1.1v.1-.1l.1.1-.1-.1h.1-.1v-.1z"/><path id="XMLID_730_" class="st4" d="M8.1 6.5H8h.1v.1-.1l.1.1-.1-.1h.1-.1v-.1z"/><path id="XMLID_729_" class="st4" d="M6.9 6.7h-.1.1v.1-.1.1-.1H7h-.1v-.1z"/><path id="XMLID_728_" class="st4" d="M6.6 6.2h-.1.1l-.1.1.1-.1v.1-.1h.1-.1v-.1z"/><path id="XMLID_727_" class="st4" d="M5.9 6.6v.1H6v-.1z"/><path id="XMLID_726_" class="st4" d="M6.8 7h-.1v.1l.1-.1v.1V7h.1-.1v-.1z"/><path id="XMLID_725_" class="st4" d="M8.4 6.7h-.1.1v.1h.1l-.1-.1h.1-.1z"/><path id="XMLID_724_" class="st4" d="M8.8 6.4h-.1v.1h.1v-.1z"/><path id="XMLID_723_" class="st4" d="M9.1 7.3H9l.1.1H9h.1l.1-.1h-.1z"/><path id="XMLID_722_" class="st4" d="M9.5 7.4v.1h.1v-.1z"/><path id="XMLID_721_" class="st4" d="M9.9 7.3h-.1l.1.1h.1-.1l.1-.1h-.1z"/><path id="XMLID_720_" class="st4" d="M10.2 7.4h-.1.1v.1-.1l.1.1-.1-.1h.1-.1v-.1z"/><path id="XMLID_719_" class="st4" d="M10.4 7.2v.1h.1v-.1h-.1z"/><path id="XMLID_718_" class="st4" d="M10.6 7h-.1l.1.1h.1-.1l.1-.1h-.1z"/><path id="XMLID_717_" class="st4" d="M10.9 6.8h-.1v.1l.1-.1v.1-.2z"/><path id="XMLID_716_" class="st4" d="M9.9 7.7v.1-.1l.1.1v-.1h-.1v-.1z"/><path id="XMLID_715_" class="st4" d="M9.9 8v.1V8l.1.1V8h-.1v-.1z"/><path id="XMLID_714_" class="st4" d="M8.4 8h-.1l.1.1h.1-.1l.1-.1h-.1z"/><path id="XMLID_713_" class="st4" d="M7.2 7.2h-.1l.1.1-.1.1.1-.1.1.1v-.2h-.1v-.1z"/><path id="XMLID_712_" class="st4" d="M8.4 7h-.1l.1.1-.1.1.1-.1.1.1v-.1l.1-.1h-.2v-.1z"/><path id="XMLID_711_" class="st4" d="M9.3 4.7h-.1l.1.1-.1.1.1-.1.1.1v-.1h.1-.1v-.1z"/><path id="XMLID_710_" class="st4" d="M9.3 7.7h-.1l.1.1-.1.1.1-.1.1.1v-.2h-.1v-.1z"/><path id="XMLID_709_" class="st4" d="M10.5 6.7h-.1.1l-.1.1h.2v-.1h-.1v-.1z"/><path id="XMLID_708_" class="st4" d="M6.3 6.4h-.1.1l-.1.1h.2v-.1h.1-.1l-.1-.1z"/></g></g></svg>