<svg id="Modo_de_isolamento" xmlns="http://www.w3.org/2000/svg" viewBox="0 0 16.9 11.3"><style>.st0{fill:#fff}.st1{fill:#ef372e}.st2{fill:#00b14c;stroke:#000;stroke-linecap:round;stroke-linejoin:round}.st2,.st3,.st4,.st5{stroke-width:4.79e-2}.st3,.st4,.st5,.st6,.st7,.st8,.st9{stroke:#000;stroke-linecap:round;stroke-linejoin:round}.st3{fill:#ffec00}.st4{fill:#ef372e}.st5{fill:none}.st6{fill:#ffec00;stroke-width:5.38e-2}.st7,.st8{fill:#00bff3;stroke-width:4.79e-2}.st8{fill:#fff}.st9{fill:#ffec00;stroke-width:5.01e-2}</style><g id="XMLID_786_"><g id="XMLID_1270_"><g id="XMLID_1272_"><path id="XMLID_707_" class="st0" d="M14.6 11.3H2.3C1 11.3 0 10.3 0 9V2.2C0 1 1 0 2.3 0h12.4c1.2 0 2.2 1 2.2 2.2V9c0 1.3-1 2.3-2.3 2.3z"/><path id="XMLID_706_" class="st1" d="M14.6 11.3h-3.3V0h3.3c1.2 0 2.2 1 2.2 2.2V9c.1 1.3-.9 2.3-2.2 2.3z"/></g><path id="XMLID_705_" class="st1" d="M5.6 11.3H2.2C1 11.3 0 10.3 0 9V2.2C0 1 1 0 2.2 0h3.3v11.3z"/></g><g id="XMLID_787_"><path id="XMLID_704_" class="st2" d="M7.9 3.9H8V4h-.1z"/><g id="XMLID_788_"><g id="XMLID_1265_"><path id="XMLID_702_" class="st3" d="M8.4 7.7c0 .1 0 .1 0 0-.1.1-.1.1-.2.1l.1-.1"/><path id="XMLID_701_" class="st4" d="M8.3 7.7s0 .1 0 0c0 .1 0 .1 0 0 0 .1.1.1 0 0"/></g><g id="XMLID_1262_"><path id="XMLID_700_" class="st3" d="M7.7 7.9V8c.1 0 .1 0 .2-.1 0 0 0-.1-.1-.1"/><path id="XMLID_699_" class="st4" d="M7.7 7.9c0 .1 0 .1.1.1H8c-.2-.1-.2-.1-.3-.1"/></g><g id="XMLID_1259_"><path id="XMLID_698_" class="st3" d="M7.7 7.8s0-.1.1-.1c0 0 .1 0 .1.1"/><path id="XMLID_697_" class="st4" d="M7.7 7.8v-.1s.1 0 .1.1"/></g><g id="XMLID_1256_"><path id="XMLID_696_" class="st3" d="M9.1 7.7v.1s0 .1-.1.1h.1s.1-.1.1-.2c0 .1 0 0-.1 0"/><path id="XMLID_695_" class="st4" d="M9.1 7.7v.1c0 .1-.1.1-.1.1h.1s.1-.1.1-.2h-.1"/></g><g id="XMLID_1247_"><g id="XMLID_1253_"><path id="XMLID_694_" class="st2" d="M9 7.7h.2l.1.1s-.1 0-.2-.1c0 .1-.1.1-.1 0"/><path id="XMLID_693_" class="st2" d="M9.4 8c0-.1-.1-.1 0 0-.1-.1-.1-.2-.1-.2h.1c0 .1.1.1 0 .2.1-.1.1 0 .1 0h-.1c.1 0 0 0 0 0"/></g><path id="XMLID_692_" class="st2" d="M8.8 7.8h-.3v-.1s.2 0 .3.1c0-.1.1-.1 0 0z"/><path id="XMLID_691_" class="st2" d="M8.4 7.7H8h.4z"/><g id="XMLID_1248_"><path id="XMLID_690_" class="st2" d="M8 7.8s-.2.1-.4.1c0 0-.1 0-.1.1h-.2v-.1s.1-.1.2-.1.1 0 .2-.1h.2"/><path id="XMLID_689_" class="st5" d="M7.5 7.9V8"/></g></g><g id="XMLID_1215_"><g id="XMLID_1222_"><g id="XMLID_1224_"><g id="XMLID_1240_"><path id="XMLID_687_" class="st2" d="M6.6 4.7s.3-.4.4-.5c.1-.1.4-.3.4-.3s-.2.2-.2.3c-.1.1-.1.2-.1.2l-.5.5"/><path id="XMLID_686_" class="st2" d="M6.7 4.5l.2-.2c0-.1.2-.3.2-.3l-.2.3-.2.2"/><path id="XMLID_685_" class="st2" d="M6.8 4.5s.3-.1.3-.2h.1l-.2.2-.3.3"/><path id="XMLID_684_" class="st2" d="M6.5 5.1v-.4l.2-.4c0-.1.1-.3.1-.3v.2c0 .1-.1.5-.1.5s.2-.1.3-.2c.1 0 .2-.1.2-.1l-.3.3c-.1 0-.1.2-.1.2l-.3.2"/><path id="XMLID_683_" class="st2" d="M6.9 7.1l-.3-.6-.2-.6v-1s.1-.1.1-.2v-.3.6s.2-.1.2-.2c.1-.1.2-.1.2-.1l-.1.2c-.1.1-.1.2-.1.2l-.1.4v.4l.1.6.3.5"/></g><g id="XMLID_1225_"><path id="XMLID_682_" class="st2" d="M6.3 5.4s.1-.3.1-.4v-.4 1.1"/><path id="XMLID_681_" class="st2" d="M6.5 5.3s0-.1.1-.2.3-.2.3-.2l-.2.2c0 .1-.1.3-.1.3"/><path id="XMLID_680_" class="st2" d="M6.5 5.6s.1-.1.1-.2l.2-.2s0 .1-.1.2c0 .1-.1.3-.1.3"/><path id="XMLID_679_" class="st2" d="M6.4 5.9v-.3c0-.1-.1-.1-.1-.3V5v.2c0 .1.1.2.1.3v.2"/><path id="XMLID_678_" class="st2" d="M6.5 5.8s.1-.1.1-.2l.2-.2s-.1.1-.1.2c-.1.1-.1.4-.1.4"/><path id="XMLID_677_" class="st2" d="M6.5 6s.1-.1.1-.2l.1-.1v.2c0 .1-.1.3-.1.3"/><path id="XMLID_676_" class="st2" d="M6.5 6.3s-.1-.3-.1-.4c-.1-.1-.2-.2-.2-.3v-.2s0 .1.1.2c0 .1.1.2.2.3v.2"/><path id="XMLID_675_" class="st2" d="M6.6 6.5s-.1 0 0 0c-.1-.1-.1-.2-.2-.2 0-.1-.1-.2-.2-.3v-.2s0 .1.1.1c0 .1.2.2.2.2v.1"/><path id="XMLID_674_" class="st2" d="M6.5 6.3s0-.1.1-.2c0-.1.1-.2.1-.2v.5"/><path id="XMLID_673_" class="st2" d="M6.6 6.4s0-.1.1-.2c0-.1.1-.2.1-.2s0 .1-.1.2v.3"/><path id="XMLID_672_" class="st2" d="M6.6 6.7s0-.1-.1-.2c0-.1-.2-.2-.3-.3v-.1l.1.1c.1.1.2.1.3.2l.1.1"/><path id="XMLID_671_" class="st2" d="M6.7 6.6v-.3c.1-.1.1-.2.1-.2s0 .1-.1.2v.5"/><path id="XMLID_670_" class="st2" d="M6.8 6.7v-.2c0-.1.1-.2.1-.2v.3c0 .1 0 .2.1.2l-.1.2"/><path id="XMLID_669_" class="st2" d="M7 7.1l-.3-.2s0-.1-.1-.2c-.1 0-.2-.1-.3-.2v-.1l.1.1c.1 0 .2.1.3.2l.1.1"/></g></g><path id="XMLID_668_" class="st2" d="M7.2 7.3s-.2-.1-.3-.4c-.1-.2.1-.4.1-.4v.3c0 .1.2.5.2.5"/></g><g id="XMLID_1216_"><path id="XMLID_667_" class="st2" d="M7 7.1S6.9 7 6.8 7c0-.1-.1-.1-.2-.2-.1 0-.2-.1-.2-.1l.1.1c.1.1.5.4.5.4l.2.1"/><path id="XMLID_666_" class="st2" d="M7.1 7.2S7 7 7 6.9c0-.2.1-.3.1-.3v.3c0 .1.1.1.1.1v.3"/><path id="XMLID_665_" class="st2" d="M7.2 7.3v-.2c0-.1.1-.3.1-.3V7c0 .1.1.3.1.3s.1.1.2.1.2.1.2.1l.1.1h-.1l-.6-.2"/><path id="XMLID_664_" class="st2" d="M7.2 7.4l-.3-.1s-.1-.1-.2-.1L6.5 7s.1.1.2.1.1 0 .3.1c.1.1.2.1.2.2"/><path id="XMLID_663_" class="st2" d="M7.4 7.5s-.2 0-.4-.1c-.1 0-.2-.1-.2-.1l-.1-.1H7c.1 0 .2.1.2.1"/></g></g><g id="XMLID_1056_"><g id="XMLID_1059_"><g id="XMLID_1064_"><g id="XMLID_1096_"><g id="XMLID_1133_"><g id="XMLID_1161_"><g id="XMLID_1190_"><g id="XMLID_1192_"><g id="XMLID_1199_"><g id="XMLID_1206_"><g id="XMLID_1210_"><path id="XMLID_662_" class="st2" d="M9.6 4.1V4h-.1v.2c0-.1 0-.1.1-.1-.1 0-.1 0 0 0"/><path id="XMLID_661_" class="st2" d="M9.8 4v-.1h-.1c-.1 0 0 .1.1.1-.1 0-.1 0 0 0-.1 0 0 0 0 0"/><path id="XMLID_660_" class="st2" d="M10.1 4.6c-.1 0-.1 0 0 0-.1 0-.1-.1-.1-.1h-.1v-.1h-.5l-.1-.1h.5V4l.1.1s0 .1.1.1v.5c.1-.2.1-.2.1-.1"/><path id="XMLID_659_" class="st2" d="M9.9 4.3c-.1 0-.1-.1-.1-.1l-.1-.1s-.1-.1-.1-.2v-.2.1s.1 0 .1.1c0 0 .1 0 .1.1l.1.1v.2"/></g><path id="XMLID_658_" class="st2" d="M10.3 5.5c0-.1 0-.1-.1-.2h.1V5h-.2c-.1 0-.1 0-.2-.1 0-.1-.1-.1-.1-.2h.4v-.5.4c0 .1 0 .2-.1.2V5c.3.5.3.5.2.5.1.1.1.1 0 0 .1.1.1.1 0 0"/><path id="XMLID_657_" class="st2" d="M10.2 5l-.1-.1-.1-.1s0-.1-.1-.1v-.2s.1 0 .1.1c0 0 .1 0 .1.1v.2"/><path id="XMLID_656_" class="st2" d="M10.2 5c0-.1-.1-.2-.1-.2s0-.1-.1-.1v-.2l.1.1s0 .1.1.1c0 .1.1.2.1.3h-.1"/></g><path id="XMLID_655_" class="st2" d="M10.1 6.8s0-.1 0 0c.1-.1.1-.1.1-.2v-.1.1l.1-.2v-.1l-.1-.1c-.1-.1-.1-.2-.2-.2l-.1-.2s0-.1-.1-.1h.2s0 .1.1.1c0 0 0 .1.1.1h.2v-.1s0-.1.1-.1v-.2l.1-.1v.2c0 .1-.1.2-.1.2l-.1.1-.1.1v.3h.1c-.2.5-.2.5-.3.5"/><path id="XMLID_654_" class="st2" d="M10.1 5.7v-.4l.1.1c0 .1.1.1.1.2"/><path id="XMLID_653_" class="st2" d="M10.4 5.6c0-.1 0-.1.1-.1l.1-.1v-.1.4"/><path id="XMLID_652_" class="st2" d="M10.3 6.1l-.2-.2v-.4s0 .1.1.1l.1.1v.4c0-.1 0-.1 0 0"/><path id="XMLID_651_" class="st2" d="M10.4 6c0-.1 0-.1 0 0v-.2c0-.1.1-.1.1-.2l.1-.1v.4c0 .1 0 .1-.1.2 0 0 0 .1-.1.1l-.1.1"/><path id="XMLID_650_" class="st2" d="M10.3 6.2v-.4c0-.1 0-.2.1-.2v-.1c.1 0 .1.1.1.2v.2c0 .1-.1.2-.2.3"/></g><path id="XMLID_649_" class="st2" d="M9.9 6.9c.1-.1.1-.1 0 0v-.1s.1 0 .1-.1v.2c.1-.1 0-.1-.1 0 .1-.1.1-.1 0 0 .1 0 0 0 0 0"/><path id="XMLID_648_" class="st2" d="M10.1 7s0-.1 0 0c0-.1 0-.1 0 0 0-.1 0-.2.1-.2 0 0 .1 0 .1-.1V7h-.2"/><path id="XMLID_647_" class="st2" d="M9.6 7.3V7c0-.1.1-.2.1-.2s.1-.1.1-.2v-.2.3l-.1.1c0 .1-.1.1-.1.2.1.2.1.3 0 .3"/><path id="XMLID_646_" class="st2" d="M9.7 7.4h.2c.1 0 .1 0 .2-.1 0 0 .2-.1.2-.2l.1-.1h-.2l-.1.1-.1.1c-.1 0-.1 0-.2.1l-.1.1"/><path id="XMLID_645_" class="st2" d="M10 7s.1-.1.2-.1.2-.1.2-.1v.1l-.2.2c-.2.2-.3.2-.4.2h-.1"/><path id="XMLID_644_" class="st2" d="M9.6 7.3v-.1l.1-.2.1-.1s.1-.1.2-.1l.1-.1v.2c0 .1-.1.2-.2.3-.1.1-.2.1-.3.1"/></g><path id="XMLID_643_" class="st2" d="M9.1 7.6s.2-.1.3-.1l.1-.1s0-.1.1 0l.1.1v.1h-.2s-.1.1-.2.1c-.1-.1-.2 0-.2-.1"/></g><path id="XMLID_642_" class="st5" d="M9.5 4s.1 0 .1.1"/><path id="XMLID_640_" class="st5" d="M9.5 4c.1 0 .1 0 0 0"/><path id="XMLID_639_" class="st5" d="M9.7 3.9l.1.1"/><path id="XMLID_638_" class="st5" d="M9.7 3.9c0 .1 0 .1 0 0"/><path id="XMLID_636_" class="st5" d="M9.8 3.9c0 .1 0 .1 0 0 0 .1.1.1.1.2l.1.2"/><path id="XMLID_635_" class="st5" d="M9.8 4s0 .1 0 0"/><path id="XMLID_634_" class="st5" d="M9.9 4v.1"/><path id="XMLID_633_" class="st5" d="M9.9 4.1v.1"/><path id="XMLID_631_" class="st5" d="M9.9 4.1s0 .1 0 0"/><path id="XMLID_630_" class="st5" d="M9.6 4c0 .1.1.1.1.2s.1.1.1.2"/><path id="XMLID_629_" class="st5" d="M9.6 4c.1.1.1.1 0 0"/><path id="XMLID_625_" class="st5" d="M9.7 4.2s.1 0 0 0"/><path id="XMLID_624_" class="st5" d="M9.8 4.1s0 .1 0 0"/><path id="XMLID_623_" class="st5" d="M9.8 4.2s0 .1 0 0"/><path id="XMLID_621_" class="st5" d="M9.5 4.1s0 .1 0 0c.1.1.1.1 0 0l.1.1h.2"/><path id="XMLID_620_" class="st5" d="M9.6 4.1s0 .1 0 0"/><path id="XMLID_618_" class="st5" d="M9.6 4.2c0 .1.1.1 0 0"/><path id="XMLID_616_" class="st5" d="M9.7 4.3c.1 0 .1 0 0 0"/></g><path id="XMLID_614_" class="st5" d="M10.3 4.5v.4"/><path id="XMLID_613_" class="st5" d="M10.3 4.6v.1"/><path id="XMLID_612_" class="st5" d="M10.4 4.6v.1"/><path id="XMLID_611_" class="st5" d="M10.4 4.7v.1"/><path id="XMLID_610_" class="st5" d="M10.3 4.7v.1"/><path id="XMLID_609_" class="st5" d="M10.4 4.8c0 .1 0 .1 0 0 0 .1 0 .1-.1.2"/><path id="XMLID_608_" class="st5" d="M10.1 4.6v.5"/><path id="XMLID_607_" class="st5" d="M10.2 4.6v.1"/><path id="XMLID_606_" class="st5" d="M10.1 4.6c0 .1.1.1 0 0"/><path id="XMLID_605_" class="st5" d="M10.1 4.7c.1 0 .1.1 0 0 .1.1.1.1 0 0"/><path id="XMLID_604_" class="st5" d="M10.2 4.7s0 .1 0 0v.1"/><path id="XMLID_603_" class="st5" d="M10.2 4.8s0 .1 0 0c0 .1 0 .1 0 0"/><path id="XMLID_602_" class="st5" d="M10.3 4.8s0 .1 0 0v.1"/><path id="XMLID_601_" class="st5" d="M10.2 4.9s0 .1 0 0"/><path id="XMLID_600_" class="st5" d="M10 4.6c0 .1 0 .1 0 0l.1.1c0 .1.1.1.1.1"/><path id="XMLID_598_" class="st5" d="M10 4.7s0 .1 0 0"/><path id="XMLID_597_" class="st5" d="M10.1 4.8s0 .1 0 0"/><path id="XMLID_596_" class="st5" d="M10.1 4.9l.1.1"/><path id="XMLID_595_" class="st5" d="M9.9 4.8c0 .1.1.1.2.2h.2"/><path id="XMLID_594_" class="st5" d="M10.1 5h.1"/><path id="XMLID_593_" class="st5" d="M10.1 4.9c0 .1 0 .1 0 0"/><path id="XMLID_592_" class="st5" d="M10 5h.1"/></g><path id="XMLID_587_" class="st5" d="M10 5.8s.1 0 0 0l.1.1"/><path id="XMLID_586_" class="st5" d="M10.2 6.1h.1"/><path id="XMLID_585_" class="st5" d="M10.1 6l.1.1"/><path id="XMLID_584_" class="st5" d="M10 5.9s.1 0 0 0c.1 0 .1 0 0 0"/><path id="XMLID_583_" class="st5" d="M10 5.8s0 .1 0 0"/><path id="XMLID_582_" class="st5" d="M10.1 5.8s0 .1 0 0"/><path id="XMLID_581_" class="st5" d="M10.1 5.7c0 .1.1.2.1.2v.2"/><path id="XMLID_580_" class="st5" d="M10.2 5.9c0 .1 0 .1 0 0 0 .1 0 .1 0 0l.1.1"/><path id="XMLID_579_" class="st5" d="M10.2 5.8c0 .1 0 .1 0 0 0 .1 0 .1 0 0"/><path id="XMLID_578_" class="st5" d="M10.1 5.7s0 .1 0 0c.1.1.1.1 0 0"/><path id="XMLID_577_" class="st5" d="M10.2 5.7v.1"/><path id="XMLID_576_" class="st5" d="M10.2 5.8V6"/><path id="XMLID_575_" class="st5" d="M10.2 5.5v.2"/><path id="XMLID_574_" class="st5" d="M10.3 5.6c0 .1 0 .1 0 0"/><path id="XMLID_572_" class="st5" d="M10.4 5.6v.6"/><path id="XMLID_571_" class="st5" d="M10.3 5.6c0 .1 0 .1 0 0v.1"/><path id="XMLID_570_" class="st5" d="M10.4 5.7s0 .1 0 0"/><path id="XMLID_569_" class="st5" d="M10.4 5.8v.1"/><path id="XMLID_568_" class="st5" d="M10.3 5.7s0 .1.1.1"/><path id="XMLID_567_" class="st5" d="M10.3 5.8c0 .1 0 .1 0 0 0 .1 0 .1.1.1"/><path id="XMLID_566_" class="st5" d="M10.4 5.9s0 .1 0 0V6"/><path id="XMLID_565_" class="st5" d="M10.3 6v.2"/><path id="XMLID_564_" class="st5" d="M10.4 6c0 .1 0 .1-.1.1"/><path id="XMLID_563_" class="st5" d="M10.5 5.5s0 .1 0 0v.1"/><path id="XMLID_562_" class="st5" d="M10.5 5.6c-.1 0 0 0 0 0v.1"/><path id="XMLID_561_" class="st5" d="M10.6 5.6v.3"/><path id="XMLID_560_" class="st5" d="M10.5 5.6c0 .1 0 .1 0 0"/><path id="XMLID_559_" class="st5" d="M10.6 5.7s0 .1-.1.1"/><path id="XMLID_558_" class="st5" d="M10.5 5.7v.1"/><path id="XMLID_557_" class="st5" d="M10.5 5.9l.1-.1"/><path id="XMLID_556_" class="st5" d="M10.7 5.8s-.1 0 0 0c-.1 0-.1 0 0 0"/><path id="XMLID_555_" class="st5" d="M10.6 5.9l-.1.1"/><path id="XMLID_554_" class="st5" d="M10.7 5.8c-.1.1-.1.1 0 0"/></g><path id="XMLID_551_" class="st5" d="M9.9 6.7s0 .1 0 0c0 .1-.1.1-.1.1 0 .1-.1.2-.1.2v.2"/><path id="XMLID_550_" class="st5" d="M9.7 7.1v.1"/><path id="XMLID_549_" class="st5" d="M9.7 6.9V7"/><path id="XMLID_547_" class="st5" d="M9.8 6.8c0 .1 0 .1 0 0v.1h.1"/><path id="XMLID_545_" class="st5" d="M9.8 6.8s.1 0 0 0c.1 0 .1 0 .1-.1"/><path id="XMLID_544_" class="st5" d="M10 6.6c0 .1 0 .1 0 0v.2"/><path id="XMLID_543_" class="st5" d="M10.1 6.7c-.1 0-.1.1 0 0"/><path id="XMLID_542_" class="st5" d="M10.1 6.8s-.1.1 0 0c-.1.1-.1.1-.1.2s-.1.1-.1.2c0 0-.1.1-.1.2"/><path id="XMLID_541_" class="st5" d="M9.8 7.1s0 .1 0 0c0 .1-.1.1 0 .1"/><path id="XMLID_540_" class="st5" d="M9.8 7.2h-.1"/><path id="XMLID_539_" class="st5" d="M9.9 7c-.1 0-.1 0 0 0l-.1.1"/><path id="XMLID_537_" class="st5" d="M10 7.1c-.1 0-.1 0 0 0-.1.1-.2.1-.2.1"/><path id="XMLID_536_" class="st5" d="M9.9 6.9s0 .1 0 0V7"/><path id="XMLID_535_" class="st5" d="M10 7h-.1"/><path id="XMLID_533_" class="st5" d="M10.1 6.9c-.1 0-.1 0 0 0-.1 0-.1.1-.1.1"/><path id="XMLID_532_" class="st5" d="M10.2 6.8c0 .1 0 .1 0 0l-.1.1"/><path id="XMLID_531_" class="st5" d="M10.1 6.8c0 .1 0 .1 0 0"/><path id="XMLID_530_" class="st5" d="M10.2 6.9c-.1 0-.1 0-.1.1"/><path id="XMLID_529_" class="st5" d="M10.3 7c-.1 0-.1 0 0 0-.1 0-.1 0 0 0l-.2.2H10s-.1 0-.1.1"/><path id="XMLID_528_" class="st5" d="M10.2 7s-.1 0 0 0c-.1 0-.1.1 0 0-.1.1-.1.1-.1.2"/><path id="XMLID_527_" class="st5" d="M10 7.1v.1"/><path id="XMLID_526_" class="st5" d="M10.2 7.1c-.1 0-.1 0-.1.1"/><path id="XMLID_525_" class="st5" d="M10.1 7.2h-.2"/><path id="XMLID_524_" class="st5" d="M10 7.2c0 .1-.1.1 0 0h-.2"/><path id="XMLID_523_" class="st5" d="M10.3 7.1c-.1 0-.1.1 0 0-.1.1-.2.1-.2.1"/><path id="XMLID_522_" class="st5" d="M10.2 7.2h-.1"/><path id="XMLID_521_" class="st5" d="M10.1 7.3s-.1 0 0 0H10"/><path id="XMLID_520_" class="st5" d="M10 7.3h-.1"/></g></g><circle id="XMLID_515_" class="st4" cx="10.1" cy="6.4" r=".1"/></g><circle id="XMLID_510_" class="st6" cx="7.9" cy="6.2" r=".1"/><g id="XMLID_811_"><g id="XMLID_906_"><g id="XMLID_1005_"><path id="XMLID_508_" class="st2" d="M8.1 3.5c.1 0 .1 0 0 0"/><path id="XMLID_507_" class="st2" d="M8 3.5c0-.1 0-.1 0 0 .1-.1.1-.1 0 0l.1-.1-.1.1"/><path id="XMLID_506_" class="st2" d="M8.1 3.4c.1-.1.1-.1.2-.1l-.1.1s0 .1-.1 0c0 .1 0 .1 0 0 0 .1 0 0 0 0"/><path id="XMLID_505_" class="st2" d="M8.1 3.5c0-.1 0-.1 0 0 .1-.1.1-.1 0 0 .1 0 .1 0 0 0"/><path id="XMLID_504_" class="st2" d="M8.2 3.4c-.1 0-.1 0 0 0"/><path id="XMLID_503_" class="st2" d="M8 3.5c.1 0 .1 0 0 0 .1 0 .1 0 0 0"/><path id="XMLID_502_" class="st2" d="M8 3.5c.1 0 .1 0 0 0"/><path id="XMLID_501_" class="st2" d="M7.9 3.4c.1 0 .1 0 0 0 .1 0 .1 0 0 0 .1.1.1.1 0 0"/><path id="XMLID_500_" class="st2" d="M7.9 3.5s.1 0 0 0c.1 0 .1 0 0 0 .1 0 .1 0 0 0"/><path id="XMLID_498_" class="st2" d="M7.9 3.6c0-.1.1-.1 0 0l.1-.1c0 .1 0 .1-.1.1.1 0 0 0 0 0"/><path id="XMLID_496_" class="st2" d="M7.9 3.5s-.1 0 0 0c-.1 0-.1 0 0 0 0 0 0-.1 0 0 0-.1 0-.1 0 0 0-.1 0-.1 0 0 0-.1 0 0 0 0z"/><path id="XMLID_495_" class="st2" d="M7.8 3.5c.1 0 .1 0 0 0 .1 0 .1 0 0 0 .1 0 .1 0 0 0 .1 0 .1 0 0 0 .1 0 .1 0 0 0 .1 0 .1 0 0 0 .1.1.1.1 0 0 .1.1.1.1 0 0 0 .1 0 .1 0 0 0 .1 0 .1 0 0 0 .1.1.1 0 0"/><path id="XMLID_494_" class="st2" d="M7.9 3.5s0 .1 0 0"/><path id="XMLID_493_" class="st2" d="M7.9 3.7c-.1 0-.1 0 0 0-.1 0-.1 0 0 0 0-.1 0-.1 0 0 0-.1 0-.1 0 0 0-.1 0-.1 0 0 .1-.1.1-.1 0 0 .1-.1.1-.1 0 0 0-.1 0 0 0 0z"/><path id="XMLID_492_" class="st2" d="M7.9 3.6s0 .1 0 0c0 .1 0 .1 0 0"/><path id="XMLID_491_" class="st2" d="M7.8 3.7s0-.1 0 0v-.2.2"/><path id="XMLID_490_" class="st2" d="M7.8 3.5c0 .1 0 .1 0 0"/><path id="XMLID_489_" class="st2" d="M7.8 3.7v-.1s.1 0 0 .1c.1 0 .1 0 0 0 .1 0 .1 0 0 0 0 .1 0 .1 0 0 0 .1 0 .1 0 0"/><path id="XMLID_487_" class="st2" d="M7.8 3.8c.1-.1.1-.1 0 0 0-.1.1-.1.1-.1l-.1.1c.1 0 .1 0 0 0 .1 0 .1 0 0 0 .1 0 0 0 0 0"/><path id="XMLID_486_" class="st2" d="M7.9 3.8s-.1 0 0 0"/><path id="XMLID_485_" class="st2" d="M7.7 3.8v-.2.2"/><path id="XMLID_484_" class="st2" d="M7.7 3.7c0 .1 0 .1 0 0"/><path id="XMLID_483_" class="st2" d="M7.8 3.8s-.1 0 0 0c-.1 0-.1 0 0 0v-.1.1c0 .1 0 .1 0 0 0 .1 0 .1 0 0 0 .1 0 .1 0 0 0 .1 0 0 0 0"/><path id="XMLID_481_" class="st2" d="M7.9 4s0-.1 0 0c0-.1 0-.1 0 0-.1-.1-.1-.1 0 0-.1-.1-.1-.1 0-.1V4c0-.1 0-.1 0 0"/><path id="XMLID_480_" class="st2" d="M7.9 3.9c0 .1 0 .1 0 0"/><path id="XMLID_479_" class="st2" d="M7.8 4c0-.1 0-.1 0 0-.1-.1-.1-.1 0 0l-.1-.2c.1.1.1.1.1.2"/><path id="XMLID_478_" class="st2" d="M7.9 4s-.1 0 0 0c-.1 0-.1-.1-.1-.1v-.1c.1.1.1.1.1.2 0-.1 0-.1 0 0"/><path id="XMLID_477_" class="st2" d="M7.8 3.9s.1.1 0 0c.1.1.1.1 0 0"/><path id="XMLID_476_" class="st2" d="M7.9 4.1s-.1 0 0 0L7.8 4v-.1c0 .1 0 .1.1.2 0-.1 0-.1 0 0"/><path id="XMLID_475_" class="st2" d="M7.8 4c.1.1.1.1 0 0"/><path id="XMLID_474_" class="st2" d="M8 4.1s0-.1 0 0c0-.1 0-.1 0 0C8 4 8 4 7.9 4v-.1c.1.1.1.1.1.2.1-.1.1-.1 0 0 .1 0 .1 0 0 0 .1 0 .1 0 0 0"/><path id="XMLID_473_" class="st2" d="M8 4.1c-.1 0-.1 0 0 0-.1 0-.1 0 0 0-.1 0-.1-.1-.1-.1-.1.1 0 .1.1.1-.1 0-.1 0 0 0-.1 0 0 0 0 0"/><path id="XMLID_472_" class="st2" d="M8.1 4.1c-.1 0-.1 0 0 0-.1 0-.1 0 0 0H8V4l.1.1c-.1-.1 0 0 0 0"/><path id="XMLID_471_" class="st2" d="M8 4c0 .1 0 .1 0 0 0 .1 0 .1 0 0 0 .1 0 .1 0 0 0 .1.1.1.1.1"/><path id="XMLID_470_" class="st2" d="M8.1 4.2H8h.1c0-.1 0-.1 0 0 0-.1 0 0 0 0"/><path id="XMLID_469_" class="st2" d="M8 4.1s0 .1 0 0c.1.1.1.1 0 0 .1.1.1.1 0 0 .1.1.1.1 0 0"/><path id="XMLID_468_" class="st2" d="M8.2 4.2h-.1c0-.1 0-.1.1 0-.1-.1-.1-.1 0 0-.1-.1 0-.1 0 0 0-.1 0 0 0 0"/><path id="XMLID_467_" class="st2" d="M8.3 4.2s-.1 0 0 0h-.1s-.1 0 0 0h.1c-.1 0-.1 0 0 0"/><path id="XMLID_466_" class="st2" d="M8.3 4.2h-.1c0-.1 0-.1.1 0-.1-.1-.1-.1 0 0-.1-.1-.1-.1 0 0 0-.1 0-.1 0 0 0-.1 0 0 0 0"/><path id="XMLID_465_" class="st2" d="M8.2 4.1c.1 0 .1.1 0 0"/><path id="XMLID_464_" class="st2" d="M8.3 4.2c0 .1 0 .1 0 0 0 .1 0 .1 0 0h-.1.1"/></g><g id="XMLID_960_"><path id="XMLID_463_" class="st2" d="M8.6 3.4c-.1 0-.1 0 0 0h-.1.1c-.1 0-.1 0 0 0"/><path id="XMLID_462_" class="st2" d="M8.6 3.5s-.1 0 0 0h-.1.1c-.1 0 0 0 0 0"/><path id="XMLID_461_" class="st2" d="M8.6 3.5h-.1c.1-.1.1-.1.1 0"/><path id="XMLID_459_" class="st2" d="M8.7 3.5s-.1 0 0 0c-.1 0-.1 0-.1-.1l.1.1c0-.1 0-.1 0 0 0-.1 0-.1 0 0"/><path id="XMLID_458_" class="st2" d="M8.7 3.5s0 .1 0 0c0 .1 0 .1 0 0h-.1.1"/><path id="XMLID_457_" class="st2" d="M8.7 3.5h-.1.1"/><path id="XMLID_455_" class="st2" d="M8.8 3.5c-.1 0-.1 0 0 0-.1 0-.1-.1-.1-.1l.1.1c-.1-.1-.1-.1 0 0 0-.1 0 0 0 0"/><path id="XMLID_454_" class="st2" d="M8.8 3.6c-.1 0-.1 0 0 0h-.1s0-.1.1 0"/><path id="XMLID_453_" class="st2" d="M8.9 3.6c-.1-.1-.1-.1 0 0-.1-.1-.1-.2-.1-.2s.1.1.1.2c0-.1 0-.1 0 0"/><path id="XMLID_452_" class="st2" d="M8.8 3.6h-.1c0-.1.1-.1.1 0 0-.1 0-.1 0 0 0-.1 0-.1 0 0 0-.1 0 0 0 0"/><path id="XMLID_451_" class="st2" d="M8.9 3.6s0-.1 0 0c0-.1-.1-.1 0-.1v.1c0-.1 0-.1 0 0"/><path id="XMLID_450_" class="st2" d="M9 3.7c0-.1 0-.1 0 0 0-.1 0-.1 0 0-.1-.1-.1-.1 0 0-.1-.1-.1-.2-.1-.2l.1.2c0-.1 0-.1 0 0 0-.1 0-.1 0 0"/><path id="XMLID_449_" class="st2" d="M8.9 3.6c-.1 0-.1 0 0 0-.1 0-.1 0 0 0-.1 0-.1 0 0 0-.1-.1 0 0 0 0s0 .1 0 0"/><path id="XMLID_448_" class="st2" d="M8.9 3.7c-.1 0-.1 0-.1-.1.1 0 .1 0 .1.1"/><path id="XMLID_447_" class="st2" d="M9 3.7c-.1 0-.1 0 0 0-.1 0-.1-.1-.1-.1.1 0 .1.1.1.1"/><path id="XMLID_446_" class="st2" d="M9 3.8c0-.1 0-.1 0 0v-.2.2c0-.1 0 0 0 0"/><path id="XMLID_445_" class="st2" d="M8.9 3.9s0-.1 0 0c0-.1 0-.1 0 0v-.1.1c0-.1 0-.1 0 0"/><path id="XMLID_444_" class="st2" d="M8.9 3.9c0-.1 0-.1 0 0v-.1s.1 0 .1.1c0-.1 0-.1-.1 0 .1-.1.1 0 0 0"/><path id="XMLID_442_" class="st2" d="M9 3.9c0-.1 0-.1 0 0v-.1.1c0-.1 0 0 0 0"/><path id="XMLID_441_" class="st2" d="M9 3.8s0 .1 0 0c0 .1 0 .1 0 0"/><path id="XMLID_440_" class="st2" d="M8.8 4c0-.1 0-.1 0 0 0-.1 0-.1 0 0v-.1c.1 0 .1 0 0 .1.1-.1.1-.1 0 0 .1-.1.1-.1 0 0"/><path id="XMLID_438_" class="st2" d="M8.8 4c.1-.1.1-.1 0 0l.1-.1c.1 0 0 .1-.1.1.1 0 .1 0 0 0 .1 0 .1 0 0 0 .1 0 0 0 0 0"/><path id="XMLID_437_" class="st2" d="M8.9 3.9c0 .1 0 .1 0 0"/><path id="XMLID_436_" class="st2" d="M8.9 4c0-.1.1-.1.1-.1V4h-.1c.1 0 0 0 0 0"/><path id="XMLID_435_" class="st2" d="M9 3.9s0 .1 0 0c0 .1 0 .1 0 0-.1.1-.1.1 0 0"/><path id="XMLID_434_" class="st2" d="M8.7 4.1c0-.1 0-.1 0 0 0-.1 0-.1 0 0 .1-.1.1-.1.1-.2 0 .1 0 .1-.1.2.1 0 0 0 0 0"/><path id="XMLID_433_" class="st2" d="M8.8 4h.1v.1s-.1 0-.1-.1"/><path id="XMLID_432_" class="st2" d="M8.9 4c-.1 0-.1 0 0 0"/><path id="XMLID_431_" class="st2" d="M8.8 4.1c.1-.1.1-.1 0 0l.1-.1c0 .1 0 .1-.1.1.1 0 .1 0 0 0 .1 0 0 0 0 0"/><path id="XMLID_430_" class="st2" d="M8.6 4.1l.1-.1s0 .1-.1.1c.1 0 .1 0 0 0"/><path id="XMLID_429_" class="st2" d="M8.7 4.1l.1-.1c0 .1-.1.2-.1.1 0 .1 0 .1 0 0"/><path id="XMLID_428_" class="st2" d="M8.8 4.1c-.1 0-.1 0-.1.1"/><path id="XMLID_427_" class="st2" d="M8.7 4.2s.1-.1 0 0c.1-.1.1-.1 0 0l.1-.1c.1 0 0 .1-.1.1.1 0 .1 0 0 0"/><path id="XMLID_426_" class="st2" d="M8.6 4.2l.1-.1c0 .1 0 .1-.1.1.1 0 0 0 0 0"/><path id="XMLID_425_" class="st2" d="M8.7 4.2c-.1 0-.1 0 0 0"/><path id="XMLID_424_" class="st2" d="M8.5 4.2c.1 0 .1 0 0 0 .1-.1.1-.1 0 0l.1-.1c.1 0 .1.1-.1.1.1 0 .1 0 0 0 .1 0 .1 0 0 0"/><path id="XMLID_422_" class="st2" d="M8.5 4.2c0-.1 0-.1 0 0 .1-.1.1-.1 0 0l.1-.1s0 .1-.1.1"/><path id="XMLID_421_" class="st2" d="M8.5 4.2c0 .1 0 .1 0 0"/></g><g id="XMLID_954_"><path id="XMLID_419_" class="st4" d="M8.4 4.2s-.1 0 0 0c-.2-.1-.2-.2-.2-.2l.1.1c.1 0 .1.1.1.1"/><path id="XMLID_418_" class="st4" d="M8.5 4.1l-.1.1v-.1l.1-.1c.1 0 .1.1 0 .1z"/><path id="XMLID_417_" class="st4" d="M8.4 4.2s0 .1 0 0c-.1.1-.1.2-.1.2h-.1l.1-.1h.1s-.1 0 0-.1c-.1 0 0 0 0 0"/><path id="XMLID_416_" class="st4" d="M8.4 4.2s.1 0 0 0l.1.1h.2s0-.1-.1-.1c-.1.1-.1.1-.2 0 .1.1 0 .1 0 0"/><path id="XMLID_415_" class="st4" d="M8.5 4.2c-.1.1-.1.1 0 0-.1.1-.1.1 0 0-.1 0-.1 0 0 0-.1 0 0 0 0 0z"/></g><path id="XMLID_414_" class="st5" d="M8.4 4.2s0-.1 0 0c-.1-.1-.1-.2-.1-.2s0 .1.1.2c-.1 0 0 0 0 0"/><path id="XMLID_413_" class="st5" d="M8.5 4s0 .1 0 0c0 .1-.1.2-.1.2"/><path id="XMLID_412_" class="st5" d="M8.2 4.1h.1"/><g id="XMLID_907_"><g id="XMLID_948_"><path id="XMLID_411_" class="st3" d="M8.4 4.3s-.3.1-.6.1-.4-.1-.4-.1 0 .2-.1.3c-.1.1-.3.2-.3.2s.3.3.3.5c0 .5-.4.5-.3 1 0 .3.3.5.6.5.4.1.7.2.8.4"/><path id="XMLID_410_" class="st3" d="M8.4 4.3s.2.1.6.1c.3 0 .4-.1.4-.1s.1.1.2.3c.1.1.3.2.3.2s-.4.3-.4.6c0 .5.4.5.3 1 0 .3-.3.5-.6.5-.4.1-.6.1-.8.3"/></g><path id="XMLID_409_" class="st7" d="M8.4 5.4h-.9s0-.2-.1-.3c-.1-.2-.2-.2-.2-.2l.2-.2c.1-.1.1-.2.1-.2s.1 0 .4.1c.2 0 .5-.1.5-.1v.9z"/><path id="XMLID_408_" class="st8" d="M8.5 5.4h.9s0-.2.1-.3c.1-.2.2-.3.2-.3s-.2 0-.3-.1l-.1-.2H9c-.2 0-.5-.1-.5-.1v1z"/><g id="XMLID_916_"><path id="XMLID_407_" class="st2" d="M8.9 5.4v-.2h-.1s-.1 0-.1-.1h-.1V5s0-.1.1-.1h.1v-.1H9c.1 0 .1 0 .1.1h.1V5h.1v.2l-.1.1h-.1v.3"/><path id="XMLID_406_" class="st2" d="M8.9 4.6c0 .1 0 .1 0 0"/><path id="XMLID_404_" class="st2" d="M8.8 4.7s0 .1 0 0v.1"/><path id="XMLID_403_" class="st2" d="M8.7 4.8s0 .1 0 0c0 .1.1.1.1.1"/><path id="XMLID_402_" class="st2" d="M8.7 4.8v.1"/><path id="XMLID_401_" class="st2" d="M8.7 5c.1 0 .1 0 0 0"/><path id="XMLID_400_" class="st2" d="M8.8 4.9s0 .1 0 0c.1.1.1.1 0 0"/><path id="XMLID_399_" class="st2" d="M9 4.8l-.1.1"/><path id="XMLID_398_" class="st2" d="M9 4.7v.1"/><path id="XMLID_397_" class="st2" d="M9.1 4.8s.1 0 0 0c.1.1.1.1 0 0v.1"/><path id="XMLID_396_" class="st2" d="M9.1 4.7c0 .1 0 .1 0 0v.1"/><path id="XMLID_395_" class="st2" d="M9.2 4.9V5"/><path id="XMLID_394_" class="st2" d="M9.1 4.9V5"/><path id="XMLID_393_" class="st2" d="M9 4.9s0 .1 0 0C9 5 9 5 8.9 5"/><path id="XMLID_392_" class="st2" d="M9.1 5c0 .1 0 .1 0 0-.1.1-.1.1-.1.2"/><path id="XMLID_391_" class="st2" d="M9.1 5c0 .1 0 .1 0 0 0 .1-.1.1-.1.1"/><path id="XMLID_390_" class="st2" d="M9.2 5c0 .1 0 .1 0 0 0 .1 0 .1 0 0"/><path id="XMLID_389_" class="st2" d="M8.9 5.1c-.1 0-.1 0 0 0-.1 0-.1 0 0 0"/><path id="XMLID_388_" class="st2" d="M8.8 5.1s.1 0 0 0h.1"/><path id="XMLID_387_" class="st2" d="M8.7 5c0 .1 0 .1 0 0 .1.1.1.1.1 0"/><path id="XMLID_386_" class="st2" d="M8.6 4.9c0 .1 0 .1 0 0"/><path id="XMLID_385_" class="st2" d="M8.9 5.2s.1 0 0 0"/><path id="XMLID_384_" class="st2" d="M8.9 5.2s.1 0 0 0"/><path id="XMLID_383_" class="st2" d="M8.9 5.3s.1 0 0 0"/><path id="XMLID_382_" class="st2" d="M8.9 5.3s.1 0 0 0"/><path id="XMLID_381_" class="st2" d="M8.9 5.3s.1 0 0 0"/><path id="XMLID_380_" class="st2" d="M8.9 5.4s.1 0 0 0"/><path id="XMLID_379_" class="st2" d="M8.9 5.4s.1 0 0 0"/></g><path id="XMLID_378_" class="st4" d="M9.5 5.8c-.1-.2-.1-.3-.1-.3h-2s0 .1-.1.2c0 .2-.2.4-.1.7.1.4.6.4.8.4.3.1.4.2.4.2s.1-.1.4-.2c.2-.1.7-.1.8-.4.2-.3-.1-.5-.1-.6z"/><g id="XMLID_908_"><g id="XMLID_911_"><path id="XMLID_377_" class="st3" d="M7.6 5.1v.2h.1V5l.1-.1"/><path id="XMLID_376_" class="st3" d="M8.1 5.1v.4"/><path id="XMLID_375_" class="st3" d="M7.8 5.1h-.2v-.2l.1-.1H8v-.3s0 .1.1.1v-.1.2c.1 0 .1 0 .1.1s-.1 0-.1 0v.4h-.2s-.1 0-.1-.1"/></g><path id="XMLID_374_" class="st3" d="M7.6 5.1v.4h.1v-.2"/><path id="XMLID_373_" class="st3" d="M8 5.1s0 .1 0 0v.4h.1v-.4"/></g></g></g><path id="XMLID_372_" class="st3" d="M7.6 5.9l-.1.2v.1l.4.3.4.1.2.1h.2l.2-.1v-.1h-.3l-.2-.1-.2-.2-.2-.3h-.4z"/><g id="XMLID_812_"><g id="XMLID_844_"><circle id="XMLID_368_" class="st3" cx="8.1" cy="6.4" r=".1"/><circle id="XMLID_366_" class="st3" cx="8.2" cy="6.5" r=".1"/><circle id="XMLID_365_" class="st3" cx="8.5" cy="6.5" r=".1"/><circle id="XMLID_364_" class="st3" cx="8.2" cy="6.5" r=".1"/><circle id="XMLID_363_" class="st3" cx="8.3" cy="6.6" r=".1"/><circle id="XMLID_362_" class="st3" cx="8.4" cy="6.4" r=".1"/><circle id="XMLID_361_" class="st3" cx="8.5" cy="6.6" r=".1"/><circle id="XMLID_360_" class="st3" cx="8.4" cy="6.6" r=".1"/><circle id="XMLID_359_" class="st3" cx="8.4" cy="6.4" r=".1"/><circle id="XMLID_358_" class="st3" cx="8.5" cy="6.5" r=".1"/><circle id="XMLID_357_" class="st3" cx="8.6" cy="6.7" r=".1"/><circle id="XMLID_352_" class="st3" cx="7.9" cy="6.1" r=".1"/><circle id="XMLID_351_" class="st3" cx="7.6" cy="6.3" r=".1"/><circle id="XMLID_350_" class="st6" cx="7.8" cy="6.2" r=".1"/><circle id="XMLID_349_" class="st6" cx="7.7" cy="6.3" r=".1"/><circle id="XMLID_348_" class="st6" cx="7.7" cy="6.5" r=".1"/><circle id="XMLID_347_" class="st6" cx="7.6" cy="6.4" r=".1"/><circle id="XMLID_346_" class="st6" cx="7.5" cy="6.3" r=".1"/><circle id="XMLID_345_" class="st6" cx="7.5" cy="6.2" r=".1"/><circle id="XMLID_344_" class="st6" cx="7.7" cy="6.2" r=".1"/><circle id="XMLID_343_" class="st6" cx="7.6" cy="6.2" r=".1"/><circle id="XMLID_342_" class="st6" cx="7.6" cy="6.1" r=".1"/><circle id="XMLID_341_" class="st6" cx="7.7" cy="6.1" r=".1"/><circle id="XMLID_340_" class="st6" cx="7.8" cy="6.1" r=".1"/><circle id="XMLID_339_" class="st6" cx="8.1" cy="6.1" r=".1"/><circle id="XMLID_338_" class="st6" cx="8" cy="6" r=".1"/><circle id="XMLID_337_" class="st6" cx="8" cy="6.1" r=".1"/><circle id="XMLID_336_" class="st6" cx="7.9" cy="6" r=".1"/><circle id="XMLID_335_" class="st6" cx="7.8" cy="6" r=".1"/><circle id="XMLID_334_" class="st6" cx="8.2" cy="6.2" r=".1"/><circle id="XMLID_333_" class="st6" cx="8" cy="6.3" r=".1"/><circle id="XMLID_332_" class="st6" cx="8.1" cy="6.3" r=".1"/><circle id="XMLID_331_" class="st6" cx="8.2" cy="6.1" r=".1"/><circle id="XMLID_330_" class="st6" cx="8.1" cy="6.1" r=".1"/><circle id="XMLID_329_" class="st6" cx="8.3" cy="6.1" r=".1"/><circle id="XMLID_328_" class="st6" cx="8.2" cy="6.3" r=".1"/><circle id="XMLID_327_" class="st6" cx="7.9" cy="6.3" r=".1"/><circle id="XMLID_326_" class="st6" cx="7.8" cy="6.4" r=".1"/><circle id="XMLID_325_" class="st6" cx="7.9" cy="6.5" r=".1"/><circle id="XMLID_324_" class="st6" cx="8" cy="6.4" r=".1"/><circle id="XMLID_323_" class="st6" cx="8" cy="6.6" r=".1"/><circle id="XMLID_322_" class="st6" cx="8.2" cy="6.6" r=".1"/><circle id="XMLID_321_" class="st6" cx="8" cy="6.5" r=".1"/><circle id="XMLID_320_" class="st6" cx="8.1" cy="6.5" r=".1"/><circle id="XMLID_319_" class="st6" cx="8.1" cy="6.4" r=".1"/><circle id="XMLID_318_" class="st6" cx="8.7" cy="6.6" r=".1"/><circle id="XMLID_317_" class="st6" cx="8.7" cy="6.5" r=".1"/><circle id="XMLID_316_" class="st6" cx="8.6" cy="6.6" r=".1"/><circle id="XMLID_315_" class="st6" cx="8.4" cy="6.7" r=".1"/><circle id="XMLID_314_" class="st6" cx="8.5" cy="6.7" r=".1"/><circle id="XMLID_313_" class="st6" cx="8.8" cy="6.6" r=".1"/><ellipse id="XMLID_312_" class="st9" cx="8.2" cy="6.4" rx=".1" ry=".1"/></g><g id="XMLID_813_"><g id="XMLID_822_"><path id="XMLID_311_" class="st3" d="M8.6 5.9V6s0 .1-.1.1c0 0 0 .1 0 0V6s.1 0 .1-.1"/><path id="XMLID_310_" class="st3" d="M8.6 6.1v.1s-.1 0 0-.1c-.1 0-.1 0 0 0-.1 0 0 0 0 0V6c.1 0 .1 0 0 .1 0-.1 0-.1 0 0"/><path id="XMLID_309_" class="st3" d="M8.6 6.1l.1-.1c-.1 0-.1.1-.1.1s0 .1 0 0c-.1.1 0 .1 0 .1v-.1c0 .1 0 .1 0 0"/><path id="XMLID_308_" class="st3" d="M8.7 6.1V6v.1c-.1 0-.1 0 0 0-.1.1-.1.1 0 0-.1.1 0 .1 0 .1v-.1c0 .1 0 .1 0 0"/><g id="XMLID_823_"><path id="XMLID_307_" class="st3" d="M8.7 6.2s0-.1 0 0c0-.1.1-.1 0 0v-.1.1c0-.1 0-.1 0 0s0 .1 0 0c0 .1 0 0 0 0"/><path id="XMLID_306_" class="st3" d="M8.8 6.2v-.1c-.1 0-.1.1 0 .1-.1 0-.1 0 0 0-.1.1-.1.1 0 0-.1.1-.1.1 0 0-.1.1 0 .1 0 0 0 .1 0 .1 0 0"/><path id="XMLID_305_" class="st3" d="M8.9 6.2c-.1 0-.1 0 0 0v-.1c-.1 0-.1 0 0 .1-.1-.1-.1 0 0 0-.1 0-.1 0 0 0l-.1.1h.1"/><path id="XMLID_304_" class="st3" d="M8.9 6.2c0-.1 0-.1 0 0 0-.1 0-.1 0 0 0-.1-.1-.1 0 0-.1-.1-.1-.1 0 0-.1 0-.1 0 0 0-.1 0-.1.1-.1.1h.1"/><path id="XMLID_303_" class="st3" d="M9 6.2c-.1-.1-.1-.1 0 0-.1-.1-.1 0 0 0-.1 0-.1 0 0 0-.1.1-.1.1 0 .1v.1h.1"/><path id="XMLID_302_" class="st3" d="M9 6.2s0-.1 0 0c0-.1-.1-.1 0 0-.1 0-.1 0 0 0v.2h.1s.1 0 0 0"/><path id="XMLID_301_" class="st3" d="M9.1 6.1s-.1 0 0 0c-.1 0-.1.1 0 0-.1.1-.1.1 0 0v.1"/><path id="XMLID_300_" class="st3" d="M9.1 6.1c-.1 0 0 .1 0 0 0 .1 0 .1.1.1h.1"/><path id="XMLID_299_" class="st3" d="M9.1 6.1c0 .1 0 .1 0 0l.1.1v-.1"/><path id="XMLID_298_" class="st3" d="M9.2 6.1c-.1 0-.1 0 0 0-.1 0-.1 0 0 0-.1 0 0 0 0 0 .1.1.2.1.2 0"/><path id="XMLID_297_" class="st3" d="M9.2 6c-.1 0-.1 0 0 0-.1.1-.1.1 0 0 0 .1.1.1.1.1 0-.1 0-.1-.1-.1"/><path id="XMLID_296_" class="st3" d="M9.1 6c.1 0 .1 0 0 0h.1c.1-.1 0-.1-.1 0"/><path id="XMLID_295_" class="st3" d="M9.1 6c.1 0 .1 0 0 0 .1 0 .1-.1.1-.1l-.1.1"/><path id="XMLID_294_" class="st3" d="M9.2 5.9s0-.1 0 0c-.1 0-.1 0 0 0-.1 0-.1 0 0 0-.1 0-.1 0 0 0-.1.1-.1.1 0 0"/><path id="XMLID_293_" class="st3" d="M9.1 5.8c.1.1 0 .1 0 0v.1c-.1 0-.1 0 0-.1"/><path id="XMLID_292_" class="st3" d="M9.1 5.9s0-.1 0 0c0-.1-.1-.1 0 0-.1-.1-.1 0 0 0-.1.1 0 0 0 0"/></g></g><path id="XMLID_291_" class="st3" d="M8.5 6.1c0-.1 0-.1 0 0 .1-.1.1-.1.1-.2v-.1"/><path id="XMLID_290_" class="st3" d="M8.4 6.1c.1 0 .1 0 0 0 .1 0 .1 0 0 0 .1 0 .1 0 0 0 .1 0 .1-.1.1-.2v-.2l-.1-.1"/><path id="XMLID_289_" class="st3" d="M8.4 6.1c.1 0 .1 0 0 0 .1 0 .1 0 0 0 .1 0 .1 0 0 0 .1 0 .1 0 0 0 .1 0 .1 0 0 0 .1-.1.1-.1.1-.2v-.3h-.2"/><path id="XMLID_288_" class="st3" d="M8.4 6.1v-.2l-.1-.1s0-.1-.1-.1h-.1"/><path id="XMLID_287_" class="st3" d="M7.8 5.7s.1-.1.2-.1h.2l.1.1.1.1s0 .1.1.1V6"/><path id="XMLID_286_" class="st3" d="M7.6 5.8l.1-.1h.2s.2.1.1.1c0 0 .1.1.2.1.1.1.2.1.2.2v.1"/><path id="XMLID_285_" class="st3" d="M7.5 6c0-.1 0-.1.1-.2 0 0 0-.1.1-.1h.4l.2.1s.1 0 .1.1V6l-.1-.1h-.6c-.1.1-.1.1-.2.1"/><path id="XMLID_284_" class="st3" d="M7.5 6.1c0-.1 0-.1 0 0 .1-.1.1-.1.2-.1h.4c.1 0 .1.1.2.1 0 0 .1 0 .1.1l-.1-.1-.1-.1h-.4s-.2 0-.3.1c0-.1 0 0 0 0"/></g></g></g><g id="XMLID_807_"><path id="XMLID_283_" class="st3" d="M8.4 7.5l-.1-.1h-.2s-.1-.1-.2-.1h-.2c-.1 0-.1.1-.1.1v.4h.6"/><path id="XMLID_282_" class="st4" d="M8.4 7.7h-.7.6c0-.1 0-.1.1 0 0-.1 0-.1 0 0"/><path id="XMLID_281_" class="st4" d="M8.4 7.6s-.2-.1-.4-.1-.3-.1-.3 0v-.2s.1 0 .4.1c.1 0 .3.1.3.2"/></g><path id="XMLID_280_" class="st3" d="M7.7 7.7c0-.1.1-.1.2-.1H8l.2.1h.2v.1h-.3s-.2-.1-.3-.1h-.1"/><path id="XMLID_279_" class="st4" d="M7.7 7.7l.1-.1c.1 0 .1 0 .2.1l.2.1h.1l-.1.1h-.3c.1-.1.1-.1 0-.1s-.1-.1-.2-.1"/><path id="XMLID_278_" class="st3" d="M8.6 7.6v-.2l.1-.1s.1-.1.2-.1h.3v.3"/><path id="XMLID_277_" class="st4" d="M8.5 7.6c.1 0 .2-.1.3-.1h.3v.1s-.1 0-.1.1h-.3s-.1 0-.2-.1"/><path id="XMLID_276_" class="st4" d="M8.5 7.5s.3-.2.5-.2h.1v.2s-.1-.1-.3 0c-.2 0-.4.1-.4.2"/><path id="XMLID_275_" class="st4" d="M8.4 7.7c.1 0 .1.1 0 0 .1.1.2.1.2.1 0-.1-.1-.1-.2-.1"/><path id="XMLID_274_" class="st3" d="M8.5 7.8h.2s.1 0 .1-.1h.3s0 .1-.1.1c0 0-.1 0-.1.1-.1 0-.2.1-.2.1h-.1c0-.1 0-.1-.1-.2.1.1.1.1 0 0 .1.1 0 0 0 0"/><path id="XMLID_273_" class="st4" d="M8.5 7.8h.2s.1-.1.2-.1h.2l-.1.1h-.1c-.1 0-.1.1-.2.1h-.1l-.1-.1"/><path id="XMLID_272_" class="st3" d="M8.4 7.4c-.1 0-.1.1 0 0 0 .1-.1.2 0 .3h.1c.1 0 .1 0 .1-.1v-.2c0-.1 0-.1-.1-.1 0 .1 0 .1-.1.1"/><path id="XMLID_271_" class="st4" d="M8.5 7.4s-.1 0 0 0c-.1 0-.1.1 0 0-.1.1-.1.2-.1.2v-.1c.1 0 .1 0 .1-.1"/><path id="XMLID_270_" class="st5" d="M8.4 7.4v.3"/><path id="XMLID_269_" class="st5" d="M8.5 7.4v.4"/><path id="XMLID_268_" class="st5" d="M7.7 7.3c.1 0 .1 0 0 0"/><path id="XMLID_267_" class="st5" d="M7.7 7.4h.1"/><path id="XMLID_266_" class="st5" d="M7.7 7.4h.1"/></g></g></g></svg>