<svg id="Modo_de_isolamento" xmlns="http://www.w3.org/2000/svg" viewBox="0 0 16.9 11.3"><style>.st0{fill:#00aeef}.st1{fill:#fff}.st2{fill:#fd0;stroke:#000;stroke-width:.1;stroke-linejoin:round;stroke-miterlimit:10}.st3{fill:none}</style><g id="XMLID_1415_"><path id="XMLID_783_" class="st0" d="M2.2 11.3h12.5c1.2 0 2.2-1 2.2-2.2V2.2c0-1.2-1-2.2-2.2-2.2H2.2C1 0 0 1 0 2.2v6.9c0 1.2 1 2.2 2.2 2.2z"/><path id="XMLID_782_" class="st1" d="M0 3.8h16.9v3.8H0z"/><g id="XMLID_1417_"><path id="XMLID_781_" class="st2" d="M8.4 4.7l.1-.7.1.7c.1-.1.1-.2.1-.3 0-.3.1-.4.2-.4-.1.1-.1.2-.1.3v.4l.4-.7-.3.8c.1 0 .2-.1.2-.3.1-.2.3-.3.4-.3-.2.2-.2.2-.2.4s-.1.2-.2.3l.6-.5-.5.6c.1 0 .2 0 .3-.2.2-.1.4-.1.5 0-.2 0-.3 0-.4.2-.1.1-.1.1-.3.2L10 5l-.6.4h.3c.2-.1.4 0 .4.1h-.7l.7.1-.7.1c.1 0 .2.1.3.1.2 0 .4.2.4.2h-.7l.6.3-.7-.2c0 .1.1.2.3.2.2.1.3.3.3.4-.2-.2-.2-.2-.4-.3-.2 0-.2-.1-.3-.2l.5.6-.6-.4c0 .1 0 .2.2.3.2.2.1.4.1.4 0-.2-.1-.3-.2-.3-.2-.1-.2-.2-.3-.3l.2.7-.4-.6v.3c.1.2 0 .4-.1.4v-.7l-.1.7-.1-.7c-.1.1-.1.2-.1.3 0 .2-.2.4-.2.4.1-.1.1-.2.1-.4v-.4l-.4.7.2-.7c-.1 0-.2.1-.2.3-.1.2-.3.2-.4.2.2-.1.2-.2.2-.3 0-.2.1-.2.2-.3l-.5.4.5-.6c-.1 0-.2 0-.3.2-.2.2-.4.2-.5.1.2 0 .3-.1.3-.2.1-.1.1-.2.3-.2l-.7.2.7-.4h-.3c-.3.1-.5 0-.5 0h.4c.1-.1.2-.1.4-.1l-.8-.2.7-.1s-.1-.1-.3-.1c-.2 0-.4-.1-.4-.2.2.1.2.1.4.1h.4L6.9 5l.7.2c0-.1-.1-.2-.2-.2-.3-.1-.3-.3-.3-.4.1.2.2.2.3.2.2 0 .2.1.3.2l-.4-.6.6.5c0-.1 0-.2-.2-.3-.2-.2-.1-.4-.1-.4 0 .2.1.3.2.3.1.1.1.1.2.3l-.2-.7.4.7v-.3c-.1-.3 0-.5 0-.6v.4c.1.2.2.2.2.4z"/><path id="XMLID_780_" d="M8.4 5.7c0-.1 0-.4-.2-.4-.2-.1-.3.1-.3.1.1-.1.2-.2.3-.1.1 0 .2.1.2.4z"/><path id="XMLID_779_" d="M8.5 5.7c0-.1 0-.4.2-.4s.3.1.3.2c0-.2-.1-.2-.2-.2-.2 0-.3.1-.3.4z"/><path id="XMLID_778_" d="M8.4 5.8s-.1.1.1.1c.1 0 .1-.1.1-.1.1 0 .1.2-.1.2-.2-.1-.2-.2-.1-.2z"/><path id="XMLID_777_" d="M8.3 6.1l.1-.1h.2s.1 0 .1.1C8.6 6 8.5 6 8.5 6h-.1l-.1.1z"/><path id="XMLID_776_" d="M8.4 6.2c.1.1.2.1.3 0h-.3z"/><path id="XMLID_775_" d="M8.4 6.1c0 .1.1 0 .1 0 .1 0-.1.1-.1 0z"/><g id="XMLID_1425_"><path id="XMLID_1427_" d="M8.3 5.5c-.1-.1-.2-.1-.2-.1-.1 0-.1 0-.2.1 0 .1.1.1.1.1.1 0 .2 0 .3-.1zm-.2.1c-.1 0-.1-.1 0 0-.1-.1-.1-.2 0-.2 0 0 .1.1 0 .2.1-.1 0 0 0 0zm-.2-.1c.1 0 .1 0 0 0 .1 0 .1 0 0 0 .1 0 .1.1 0 0 .1.1.1 0 0 0zm.3.1c0-.1 0-.1 0 0v-.1.1c0-.1 0-.1 0 0z"/></g><g id="XMLID_1418_"><path id="XMLID_1420_" d="M9 5.5c0-.1-.1-.1-.2-.1s-.1 0-.2.1c.1.1.1.1.2.1s.2 0 .2-.1zm-.2.1s0-.1 0 0c-.1-.1 0-.1 0-.1.1-.1.1 0 0 .1.1-.1.1 0 0 0zm0-.2c0 .1-.1.1 0 0v.1c-.1 0-.1 0 0-.1-.1.1-.1.1 0 0zm.1.2s0-.1 0 0v-.1s.1 0 0 .1c.1-.1 0 0 0 0z"/></g></g><path id="XMLID_764_" class="st3" d="M14.7 11.3H2.2C1 11.3 0 10.3 0 9.1V2.2C0 1 1 0 2.2 0h12.5c1.2 0 2.2 1 2.2 2.2v6.9c0 1.2-1 2.2-2.2 2.2z"/></g></svg>