<svg id="Layer_1" xmlns="http://www.w3.org/2000/svg" viewBox="0 0 53.6 44.8"><style>.st0{fill:#fff}</style><path class="st0" d="M45.5 33.3H10.3c-1.2 0-2.2-1-2.2-2.2V10.3c0-1.2 1-2.2 2.2-2.2h41.1c.7 0 1.4.3 1.8.9.4.6.6 1.3.4 2l-5.9 20.7c-.4.9-1.2 1.6-2.2 1.6zm-33-4.5h31.3l4.7-16.2h-36v16.2z"/><path class="st0" d="M10.3 12.8c-.6 0-1.3-.2-1.8-.7L.7 4.3c-1-1-1-2.6 0-3.5 1-1 2.6-1 3.5 0L12 8.5c1 1 1 2.6 0 3.5-.5.6-1.1.8-1.7.8zm35.2 9.9H10.3c-1.1 0-2-.9-2-2s.9-2 2-2h35.2c1.1 0 2 .9 2 2s-.9 2-2 2zM13.8 44.8C10 44.8 7 41.7 7 38c0-3.8 3.1-6.8 6.8-6.8 3.8 0 6.8 3.1 6.8 6.8.1 3.7-3 6.8-6.8 6.8zm0-9.7c-1.6 0-2.8 1.3-2.8 2.8 0 1.6 1.3 2.8 2.8 2.8 1.6 0 2.8-1.3 2.8-2.8.1-1.5-1.2-2.8-2.8-2.8zm27.3 9.7c-3.8 0-6.8-3.1-6.8-6.8 0-3.8 3.1-6.8 6.8-6.8 3.8 0 6.8 3.1 6.8 6.8.1 3.7-3 6.8-6.8 6.8zm0-9.7c-1.6 0-2.8 1.3-2.8 2.8 0 1.6 1.3 2.8 2.8 2.8 1.6 0 2.8-1.3 2.8-2.8.1-1.5-1.2-2.8-2.8-2.8z"/><path class="st0" d="M22.7 32c-1.1 0-2-.9-2-2V10.3c0-1.1.9-2 2-2s2 .9 2 2V30c0 1.1-.9 2-2 2zm13.1 0c-1.1 0-2-.9-2-2V10.3c0-1.1.9-2 2-2s2 .9 2 2V30c0 1.1-.9 2-2 2z"/></svg>