<svg id="Layer_1" xmlns="http://www.w3.org/2000/svg" viewBox="0 0 43.7 43.7"><style>.st0{fill:#fff}</style><path class="st0" d="M38.6 5.2C35.2 1.8 30.8 0 26.1 0S17 1.8 13.6 5.2C7.4 11.4 6.9 21 11.8 27.9c-.7.1-1.4.4-1.9 1L1 37.8c-1.4 1.4-1.4 3.6 0 4.9.7.7 1.6 1 2.5 1s1.8-.3 2.5-1l8.9-8.9c.5-.5.9-1.2 1-1.9 3 2.2 6.5 3.3 10.3 3.3 4.7 0 9.1-1.8 12.5-5.2 6.7-6.8 6.7-18-.1-24.8zm-4.3 20.6c-2.2 2.2-5.1 3.4-8.2 3.4s-6-1.2-8.2-3.4c-4.5-4.5-4.5-11.9 0-16.4C20.1 7.2 23 6 26.1 6c3.1 0 6 1.2 8.2 3.4 4.6 4.5 4.6 11.9 0 16.4z"/></svg>