<svg xmlns="http://www.w3.org/2000/svg" width="25" height="25"><path fill-rule="evenodd" fill="#00AFF0" d="M23.712 14.513l.041.242c.008-.042.013-.085.021-.127a6.73 6.73 0 0 1 .849 3.272 6.685 6.685 0 0 1-1.965 4.755 6.652 6.652 0 0 1-4.743 1.97 6.694 6.694 0 0 1-3.301-.872l.127-.021-.242-.043c.038.023.077.042.115.064-.652.115-1.319.176-1.985.176-1.53 0-3.015-.3-4.412-.894a11.291 11.291 0 0 1-3.603-2.433 11.327 11.327 0 0 1-2.428-3.611 11.299 11.299 0 0 1-.891-4.422c0-.657.059-1.315.171-1.958.021.038.039.077.061.114l-.041-.238c-.008.041-.013.082-.02.124A6.73 6.73 0 0 1 .622 7.35c0-1.796.698-3.486 1.965-4.755A6.654 6.654 0 0 1 7.331.625c1.098 0 2.182.274 3.147.788l-.121.024.239.037-.118-.061.005-.001a11.406 11.406 0 0 1 2.146-.203 11.29 11.29 0 0 1 8.013 3.327 11.302 11.302 0 0 1 2.429 3.611c.592 1.4.891 2.888.891 4.422 0 .691-.064 1.383-.188 2.059-.021-.038-.04-.077-.062-.115zM12.228 7.549c2.962 0 2.691 2.04 4.162 2.04.774 0 1.452-.456 1.452-1.24 0-1.83-2.923-3.203-5.401-3.203-2.691 0-5.556 1.145-5.556 4.195 0 1.47.523 3.033 3.407 3.758l3.582.896c1.084.268 1.355.879 1.355 1.43 0 .917-.909 1.812-2.555 1.812-3.214 0-2.768-2.48-4.491-2.48-.775 0-1.337.535-1.337 1.298 0 1.487 1.802 3.471 5.828 3.471 3.832 0 5.729-1.851 5.729-4.33 0-1.601-.736-3.3-3.639-3.948l-2.651-.589c-1.008-.231-2.169-.535-2.169-1.488 0-.955.814-1.622 2.284-1.622z"/></svg>