<?xml version="1.0" encoding="utf-8"?>
<!-- Generator: Adobe Illustrator 17.0.0, SVG Export Plug-In . SVG Version: 6.00 Build 0)  -->
<!DOCTYPE svg PUBLIC "-//W3C//DTD SVG 1.1//EN" "http://www.w3.org/Graphics/SVG/1.1/DTD/svg11.dtd">
<svg version="1.1" id="Layer_1" xmlns="http://www.w3.org/2000/svg" xmlns:xlink="http://www.w3.org/1999/xlink" x="0px" y="0px"
	 width="685.5px" height="308.985px" viewBox="0 0 685.5 308.985" style="enable-background:new 0 0 685.5 308.985;"
	 xml:space="preserve">
<style type="text/css">
	.st0{fill:none;stroke:#3D2F90;stroke-width:4;stroke-miterlimit:22.9256;}
	.st1{fill:none;stroke:#85A8D8;stroke-width:4;stroke-miterlimit:22.9256;}
	.st2{fill:none;stroke:#4B53A4;stroke-width:4;stroke-miterlimit:22.9256;}
	.st3{fill:none;stroke:#74C044;stroke-width:4;stroke-miterlimit:22.9256;}
	.st4{fill:#74C044;}
</style>
<path class="st0" d="M226.5-25.599"/>
<path class="st0" d="M86.614,86.038"/>
<path class="st1" d="M86.5,85.401c0.857,44.998-2.873,90.775-0.842,134.842c12.268-1.921,16.967-14.953,22.064-24.619
	c5.842-11.079,10.279-22.431,16.555-34.222c5.953-11.185,14.177-25.202,18.441-36.778c2.181-5.92,2.453-12.646,5.804-18.251
	c3.171-5.303,13.491-10.988,11.977-17.971"/>
<path class="st1" d="M160.5,222.401c-12.542-1.512-17.491-20.683-25.826-27.174c-3.477-12.469-1.922-22.863-12.174-30.826"/>
<path class="st1" d="M234.5,85.401c0,36.004,2.352,71.413-1.023,106.778c-0.542,5.678-3.781,19.151,0.749,23.497
	c7.014,6.729,13.854-5.832,17.052-11.497c8.09-14.329,15.326-31.346,20.251-46.726c4.296-13.416,13.341-22.223,18.968-35.052
	c2.323-5.295,3.834-11.106,6.763-16.229c3.754-6.568,9.71-10.947,10.24-18.771"/>
<path class="st1" d="M382.5,219.401c10.455-11.176,15.965-29.268,22.023-42.97c5.676-12.837,13.566-22.918,21.783-34.002
	c11.21-15.119,18.096-38.714,24.39-55.926c9.651,7.768,2.32,51.211,1.753,63.068c-1.145,23.908,2.052,47.052,2.052,70.829"/>
<path class="st2" d="M528.5,220.401c12.187,0,23.442-1.641,35.029-2.023c13.217-0.436,23.724,4.368,36.82,2.895
	c2.147-11.472-12.346-25.099-18.068-32.653c-7.429-9.807-18.67-22.771-20.559-35.215c-2.783-18.342-10.509-47.744-27.052-58.174
	c-1.165-2.126-2.475-5.365-3.075-7.904c8.359-5.293,24.844-1.925,34.904-1.925c11,0,22,0,33,0"/>
<path class="st3" d="M57.5,56.401c14.759-6.332,42.239-0.147,59.023-0.977c23.39-1.156,46.531,1.977,70.966,1.977
	c67,0,134.261-2.699,200.996-2c35.204,0.369,69.387,5,104.703,5c21.295,0,41.548-2,63.158-2c22.75,0,53.714,5.557,74.995-2.623
	c1.757,32.829,3.158,66.987,3.158,100.623c0,17.268,2.096,33.831,2.055,51.119c-0.035,14.821-2.732,28-2.206,42.729
	c-20.796,3.228-42.489,5.058-63.071,3.929c-25.778-1.415-49.928,1.53-78.918-1.415c-11.851-1.204-33.176-1.736-44.883-2.363
	c-8.712-0.467-16.342,1.011-25.029,1c-20.719-0.025-41.596-1.625-62.069,0.023c-18.263,1.47-35.58,5.94-54.687,3.525
	c-18.778-2.373-37.77-0.863-56.192-2.185c-7.885-0.566-31,0-31,0c-6,0-10.495-3.758-19.004-2.367
	c-8.309,1.359-17.58-0.392-25.996,0.003c-22.35,1.051-44.391,2.111-67,1c-16.411-0.806-32.992,1.687-49.826,0.826
	c-4.415-8.532-0.174-29.304-0.174-39.817c0-22.073,1-43.882,1-66.009c0-30.272-3-57.701-3-87"/>
<g>
	
		<rect x="141.237" y="36.248" transform="matrix(0.997 0.0778 -0.0778 0.997 3.6642 -17.6153)" class="st4" width="173.615" height="4"/>
</g>
<g>
	
		<rect x="364.832" y="-22.459" transform="matrix(0.25 0.9682 -0.9682 0.25 305.6232 -331.5596)" class="st4" width="4" height="107.915"/>
</g>
</svg>
