<?xml version="1.0" encoding="UTF-8"?>
<!DOCTYPE svg PUBLIC "-//W3C//DTD SVG 1.1//EN" "http://www.w3.org/Graphics/SVG/1.1/DTD/svg11.dtd">
<!-- Creator: CorelDRAW X7 -->
<?xml-stylesheet href="logo-corel.css" type="text/css"?>
<svg xmlns="http://www.w3.org/2000/svg" xml:space="preserve" width="192.881mm" height="72.2312mm" version="1.1" style="shape-rendering:geometricPrecision; text-rendering:geometricPrecision; image-rendering:optimizeQuality; fill-rule:evenodd; clip-rule:evenodd"
viewBox="0 0 19288 7223"
 xmlns:xlink="http://www.w3.org/1999/xlink">
 <g id="Layer_x0020_1">
  <metadata id="CorelCorpID_0Corel-Layer"/>
  <path class="fil0 str0" d="M1203 6023c0,-1608 0,-3215 0,-4823"/>
  <path class="fil0 str0" d="M1203 6023c804,-1608 1608,-3215 2412,-4823"/>
  <path class="fil0 str0" d="M6026 1200c0,1608 0,3215 0,4823 804,-1608 1608,-3215 2412,-4823"/>
  <path class="fil0 str0" d="M10850 6023c804,-1608 1608,-3215 2412,-4823 0,1608 0,3215 0,4823"/>
  <path class="fil0 str0" d="M15673 6023c804,0 1608,0 2412,0 -804,-1608 -1608,-3215 -2412,-4823 804,0 1608,0 2412,0"/>
  <path class="fil0 str0" d="M3615 6023c-402,-804 -804,-1608 -1206,-2411"/>
  <path class="fil0 str0" d="M600 597c6029,0 12059,0 18088,0 0,2010 0,4019 0,6029 -6029,0 -12059,0 -18088,0 0,-2010 0,-4019 0,-6029z"/>
  <path class="fil0 str0" d="M-3 -6c0,2412 0,4823 0,7235 6431,0 12863,0 19294,0 0,-2412 0,-4823 0,-7235 -6431,0 -12863,0 -19294,0"/>
 </g>
</svg>
