<svg xmlns="http://www.w3.org/2000/svg" viewBox="0 0 720 720">
  <path fill="#00f" d="M360 128.09l260.954 260.955L360 650 99.046 389.044z"/>
  <path d="M360 389.045A184.523 184.523 0 1 1 99.045 128.09 184.523 184.523 0 1 1 360 389.046z" fill="red"/>
  <path d="M620.955 389.045A184.523 184.523 0 1 1 360 128.09a184.523 184.523 0 1 1 260.955 260.955z" fill="#0f0"/>
  <path d="M360 128.09c-72.06 72.062-72.06 188.895 0 260.955 72.06 72.06 188.894 72.06 260.955 0L360 128.09z" fill="#0ff"/>
  <path d="M99.045 389.045c72.06 72.06 188.894 72.06 260.955 0 72.06-72.06 72.06-188.893 0-260.954L99.045 389.047z" fill="#f0f"/>
  <path d="M360 128.09c-72.06 72.062-72.06 188.895 0 260.955 72.06-72.06 72.06-188.893 0-260.954z" fill="#ff0"/>
</svg>
